<svg width="1440" height="1328" viewBox="0 0 1440 1328" fill="none" xmlns="http://www.w3.org/2000/svg">
<circle cx="120.5" cy="387.5" r="347.5" stroke="#D79B15" stroke-opacity="0.2" stroke-width="80"/>
<circle cx="1184" cy="1025" r="303" fill="#D79B15" fill-opacity="0.2"/>
<circle cx="4" cy="1090.01" r="4" fill="#D79B15" fill-opacity="0.2"/>
<circle cx="14" cy="1090.01" r="4" fill="#D79B15" fill-opacity="0.2"/>
<circle cx="24" cy="1090.01" r="4" fill="#D79B15" fill-opacity="0.2"/>
<circle cx="34" cy="1090.01" r="4" fill="#D79B15" fill-opacity="0.2"/>
<circle cx="44" cy="1090.01" r="4" fill="#D79B15" fill-opacity="0.2"/>
<circle cx="54" cy="1090.01" r="4" fill="#D79B15" fill-opacity="0.2"/>
<circle cx="64" cy="1090.01" r="4" fill="#D79B15" fill-opacity="0.2"/>
<circle cx="74" cy="1090.01" r="4" fill="#D79B15" fill-opacity="0.2"/>
<circle cx="84" cy="1090.01" r="4" fill="#D79B15" fill-opacity="0.2"/>
<circle cx="94" cy="1090.01" r="4" fill="#D79B15" fill-opacity="0.2"/>
<circle cx="104" cy="1090.01" r="4" fill="#D79B15" fill-opacity="0.2"/>
<circle cx="114" cy="1090.01" r="4" fill="#D79B15" fill-opacity="0.2"/>
<circle cx="4" cy="1110.01" r="4" fill="#D79B15" fill-opacity="0.2"/>
<circle cx="14" cy="1110.01" r="4" fill="#D79B15" fill-opacity="0.2"/>
<circle cx="24" cy="1110.01" r="4" fill="#D79B15" fill-opacity="0.2"/>
<circle cx="34" cy="1110.01" r="4" fill="#D79B15" fill-opacity="0.2"/>
<circle cx="44" cy="1110.01" r="4" fill="#D79B15" fill-opacity="0.2"/>
<circle cx="54" cy="1110.01" r="4" fill="#D79B15" fill-opacity="0.2"/>
<circle cx="64" cy="1110.01" r="4" fill="#D79B15" fill-opacity="0.2"/>
<circle cx="74" cy="1110.01" r="4" fill="#D79B15" fill-opacity="0.2"/>
<circle cx="84" cy="1110.01" r="4" fill="#D79B15" fill-opacity="0.2"/>
<circle cx="94" cy="1110.01" r="4" fill="#D79B15" fill-opacity="0.2"/>
<circle cx="104" cy="1110.01" r="4" fill="#D79B15" fill-opacity="0.2"/>
<circle cx="114" cy="1110.01" r="4" fill="#D79B15" fill-opacity="0.2"/>
<circle cx="4" cy="1100.01" r="4" fill="#D79B15" fill-opacity="0.2"/>
<circle cx="14" cy="1100.01" r="4" fill="#D79B15" fill-opacity="0.2"/>
<circle cx="24" cy="1100.01" r="4" fill="#D79B15" fill-opacity="0.2"/>
<circle cx="34" cy="1100.01" r="4" fill="#D79B15" fill-opacity="0.2"/>
<circle cx="44" cy="1100.01" r="4" fill="#D79B15" fill-opacity="0.2"/>
<circle cx="54" cy="1100.01" r="4" fill="#D79B15" fill-opacity="0.2"/>
<circle cx="64" cy="1100.01" r="4" fill="#D79B15" fill-opacity="0.2"/>
<circle cx="74" cy="1100.01" r="4" fill="#D79B15" fill-opacity="0.2"/>
<circle cx="84" cy="1100.01" r="4" fill="#D79B15" fill-opacity="0.2"/>
<circle cx="94" cy="1100.01" r="4" fill="#D79B15" fill-opacity="0.2"/>
<circle cx="104" cy="1100.01" r="4" fill="#D79B15" fill-opacity="0.2"/>
<circle cx="114" cy="1100.01" r="4" fill="#D79B15" fill-opacity="0.2"/>
<circle cx="4" cy="1120.01" r="4" fill="#D79B15" fill-opacity="0.2"/>
<circle cx="14" cy="1120.01" r="4" fill="#D79B15" fill-opacity="0.2"/>
<circle cx="24" cy="1120.01" r="4" fill="#D79B15" fill-opacity="0.2"/>
<circle cx="34" cy="1120.01" r="4" fill="#D79B15" fill-opacity="0.2"/>
<circle cx="44" cy="1120.01" r="4" fill="#D79B15" fill-opacity="0.2"/>
<circle cx="54" cy="1120.01" r="4" fill="#D79B15" fill-opacity="0.2"/>
<circle cx="64" cy="1120.01" r="4" fill="#D79B15" fill-opacity="0.2"/>
<circle cx="74" cy="1120.01" r="4" fill="#D79B15" fill-opacity="0.2"/>
<circle cx="84" cy="1120.01" r="4" fill="#D79B15" fill-opacity="0.2"/>
<circle cx="94" cy="1120.01" r="4" fill="#D79B15" fill-opacity="0.2"/>
<circle cx="104" cy="1120.01" r="4" fill="#D79B15" fill-opacity="0.2"/>
<circle cx="114" cy="1120.01" r="4" fill="#D79B15" fill-opacity="0.2"/>
<circle cx="4" cy="1080" r="4" fill="#D79B15" fill-opacity="0.2"/>
<circle cx="14" cy="1080" r="4" fill="#D79B15" fill-opacity="0.2"/>
<circle cx="24" cy="1080" r="4" fill="#D79B15" fill-opacity="0.2"/>
<circle cx="34" cy="1080" r="4" fill="#D79B15" fill-opacity="0.2"/>
<circle cx="44" cy="1080" r="4" fill="#D79B15" fill-opacity="0.2"/>
<circle cx="54" cy="1080" r="4" fill="#D79B15" fill-opacity="0.2"/>
<circle cx="64" cy="1080" r="4" fill="#D79B15" fill-opacity="0.2"/>
<circle cx="74" cy="1080" r="4" fill="#D79B15" fill-opacity="0.2"/>
<circle cx="84" cy="1080" r="4" fill="#D79B15" fill-opacity="0.2"/>
<circle cx="94" cy="1080" r="4" fill="#D79B15" fill-opacity="0.2"/>
<circle cx="104" cy="1080" r="4" fill="#D79B15" fill-opacity="0.2"/>
<circle cx="114" cy="1080" r="4" fill="#D79B15" fill-opacity="0.2"/>
<circle cx="1326" cy="402.009" r="4" fill="#D79B15" fill-opacity="0.2"/>
<circle cx="1336" cy="402.009" r="4" fill="#D79B15" fill-opacity="0.2"/>
<circle cx="1346" cy="402.009" r="4" fill="#D79B15" fill-opacity="0.2"/>
<circle cx="1356" cy="402.009" r="4" fill="#D79B15" fill-opacity="0.2"/>
<circle cx="1366" cy="402.009" r="4" fill="#D79B15" fill-opacity="0.2"/>
<circle cx="1376" cy="402.009" r="4" fill="#D79B15" fill-opacity="0.2"/>
<circle cx="1386" cy="402.009" r="4" fill="#D79B15" fill-opacity="0.2"/>
<circle cx="1396" cy="402.009" r="4" fill="#D79B15" fill-opacity="0.2"/>
<circle cx="1406" cy="402.009" r="4" fill="#D79B15" fill-opacity="0.2"/>
<circle cx="1416" cy="402.009" r="4" fill="#D79B15" fill-opacity="0.2"/>
<circle cx="1426" cy="402.009" r="4" fill="#D79B15" fill-opacity="0.2"/>
<circle cx="1436" cy="402.009" r="4" fill="#D79B15" fill-opacity="0.2"/>
<circle cx="1326" cy="422.009" r="4" fill="#D79B15" fill-opacity="0.2"/>
<circle cx="1336" cy="422.009" r="4" fill="#D79B15" fill-opacity="0.2"/>
<circle cx="1346" cy="422.009" r="4" fill="#D79B15" fill-opacity="0.2"/>
<circle cx="1356" cy="422.009" r="4" fill="#D79B15" fill-opacity="0.2"/>
<circle cx="1366" cy="422.009" r="4" fill="#D79B15" fill-opacity="0.2"/>
<circle cx="1376" cy="422.009" r="4" fill="#D79B15" fill-opacity="0.2"/>
<circle cx="1386" cy="422.009" r="4" fill="#D79B15" fill-opacity="0.2"/>
<circle cx="1396" cy="422.009" r="4" fill="#D79B15" fill-opacity="0.2"/>
<circle cx="1406" cy="422.009" r="4" fill="#D79B15" fill-opacity="0.2"/>
<circle cx="1416" cy="422.009" r="4" fill="#D79B15" fill-opacity="0.2"/>
<circle cx="1426" cy="422.009" r="4" fill="#D79B15" fill-opacity="0.2"/>
<circle cx="1436" cy="422.009" r="4" fill="#D79B15" fill-opacity="0.2"/>
<circle cx="1326" cy="412.009" r="4" fill="#D79B15" fill-opacity="0.2"/>
<circle cx="1336" cy="412.009" r="4" fill="#D79B15" fill-opacity="0.2"/>
<circle cx="1346" cy="412.009" r="4" fill="#D79B15" fill-opacity="0.2"/>
<circle cx="1356" cy="412.009" r="4" fill="#D79B15" fill-opacity="0.2"/>
<circle cx="1366" cy="412.009" r="4" fill="#D79B15" fill-opacity="0.2"/>
<circle cx="1376" cy="412.009" r="4" fill="#D79B15" fill-opacity="0.2"/>
<circle cx="1386" cy="412.009" r="4" fill="#D79B15" fill-opacity="0.2"/>
<circle cx="1396" cy="412.009" r="4" fill="#D79B15" fill-opacity="0.2"/>
<circle cx="1406" cy="412.009" r="4" fill="#D79B15" fill-opacity="0.2"/>
<circle cx="1416" cy="412.009" r="4" fill="#D79B15" fill-opacity="0.2"/>
<circle cx="1426" cy="412.009" r="4" fill="#D79B15" fill-opacity="0.2"/>
<circle cx="1436" cy="412.009" r="4" fill="#D79B15" fill-opacity="0.2"/>
<circle cx="1326" cy="432.009" r="4" fill="#D79B15" fill-opacity="0.2"/>
<circle cx="1336" cy="432.009" r="4" fill="#D79B15" fill-opacity="0.2"/>
<circle cx="1346" cy="432.009" r="4" fill="#D79B15" fill-opacity="0.2"/>
<circle cx="1356" cy="432.009" r="4" fill="#D79B15" fill-opacity="0.2"/>
<circle cx="1366" cy="432.009" r="4" fill="#D79B15" fill-opacity="0.2"/>
<circle cx="1376" cy="432.009" r="4" fill="#D79B15" fill-opacity="0.2"/>
<circle cx="1386" cy="432.009" r="4" fill="#D79B15" fill-opacity="0.2"/>
<circle cx="1396" cy="432.009" r="4" fill="#D79B15" fill-opacity="0.2"/>
<circle cx="1406" cy="432.009" r="4" fill="#D79B15" fill-opacity="0.2"/>
<circle cx="1416" cy="432.009" r="4" fill="#D79B15" fill-opacity="0.2"/>
<circle cx="1426" cy="432.009" r="4" fill="#D79B15" fill-opacity="0.2"/>
<circle cx="1436" cy="432.009" r="4" fill="#D79B15" fill-opacity="0.2"/>
<circle cx="1326" cy="392" r="4" fill="#D79B15" fill-opacity="0.2"/>
<circle cx="1336" cy="392" r="4" fill="#D79B15" fill-opacity="0.2"/>
<circle cx="1346" cy="392" r="4" fill="#D79B15" fill-opacity="0.2"/>
<circle cx="1356" cy="392" r="4" fill="#D79B15" fill-opacity="0.2"/>
<circle cx="1366" cy="392" r="4" fill="#D79B15" fill-opacity="0.2"/>
<circle cx="1376" cy="392" r="4" fill="#D79B15" fill-opacity="0.2"/>
<circle cx="1386" cy="392" r="4" fill="#D79B15" fill-opacity="0.2"/>
<circle cx="1396" cy="392" r="4" fill="#D79B15" fill-opacity="0.2"/>
<circle cx="1406" cy="392" r="4" fill="#D79B15" fill-opacity="0.2"/>
<circle cx="1416" cy="392" r="4" fill="#D79B15" fill-opacity="0.2"/>
<circle cx="1426" cy="392" r="4" fill="#D79B15" fill-opacity="0.2"/>
<circle cx="1436" cy="392" r="4" fill="#D79B15" fill-opacity="0.2"/>
</svg>
