<svg width="1439" height="627" viewBox="0 0 1439 627" fill="none" xmlns="http://www.w3.org/2000/svg">
<path d="M1726.61 17.556C1726.61 271.076 1539.3 465.474 1321.38 465.474C1103.47 465.474 916.161 271.076 916.161 17.556C916.161 -235.964 1103.47 -430.362 1321.38 -430.362C1539.3 -430.362 1726.61 -235.964 1726.61 17.556Z" stroke="#D79B15" stroke-opacity="0.2" stroke-width="150"/>
<path d="M535.839 634.524C535.839 888.044 348.529 1082.44 130.616 1082.44C-87.2963 1082.44 -274.606 888.044 -274.606 634.524C-274.606 381.004 -87.2963 186.606 130.616 186.606C348.529 186.606 535.839 381.004 535.839 634.524Z" stroke="#D79B15" stroke-opacity="0.2" stroke-width="150"/>
<path d="M1635.13 627C1635.13 749.258 1544.82 842.808 1440 842.808C1335.18 842.808 1244.87 749.258 1244.87 627C1244.87 504.742 1335.18 411.192 1440 411.192C1544.82 411.192 1635.13 504.742 1635.13 627Z" stroke="#D79B15" stroke-opacity="0.36" stroke-width="75"/>
<path d="M207.126 -0.000106812C207.126 122.258 116.822 215.808 12.0001 215.808C-92.822 215.808 -183.126 122.258 -183.126 -0.000106812C-183.126 -122.258 -92.822 -215.808 12.0001 -215.808C116.822 -215.808 207.126 -122.258 207.126 -0.000106812Z" stroke="#D79B15" stroke-opacity="0.35" stroke-width="75"/>
</svg>
