<svg width="38" height="27" viewBox="0 0 38 27" fill="none" xmlns="http://www.w3.org/2000/svg">
<path fill-rule="evenodd" clip-rule="evenodd" d="M6.13973 9.22208C2.76288 14.2934 0 18.8001 0 19.2369C0 19.6729 0.603255 20.0242 1.33972 20.0165C2.18642 20.0088 4.50987 17.1792 7.65552 12.3259C10.3924 8.10274 12.8039 4.64686 13.0144 4.64532C13.2249 4.64378 15.2919 7.39939 17.6077 10.7682C19.9235 14.137 22.2286 16.9057 22.73 16.9204C24.1815 16.9643 24.7151 15.4436 23.6854 14.1956C22.916 13.2619 23.0699 12.6995 24.5191 11.148C25.496 10.1011 26.5325 9.24442 26.8219 9.24442C27.1113 9.24442 29.3268 11.8444 31.7452 15.0222C36.2298 20.9132 37.2319 21.6612 37.9875 19.6791C38.3802 18.6498 29.424 6.1668 27.3823 4.89723C26.9237 4.61143 25.3934 5.64603 23.9817 7.19678C22.57 8.74676 21.2778 10.0148 21.1093 10.0148C20.9417 10.0148 19.2062 7.76146 17.2533 5.00739C15.3003 2.25333 13.3826 0 12.9907 0C12.5995 0 9.51658 4.14997 6.13973 9.22208ZM0.349857 24.7057C-0.862778 26.6802 1.94374 26.9837 19.5744 26.7849C35.2575 26.6078 37.8948 26.4113 37.8948 25.4222C37.8948 24.4322 35.2368 24.2373 19.3838 24.0601C6.49418 23.9169 0.713495 24.1125 0.349857 24.7057Z" fill="white"/>
</svg>
