<svg width="30" height="39" viewBox="0 0 30 39" fill="none" xmlns="http://www.w3.org/2000/svg">
<path fill-rule="evenodd" clip-rule="evenodd" d="M12.1113 1.33951C9.57303 3.9256 11.4106 8.52649 14.982 8.52649C16.9795 8.52649 19.1679 6.29767 19.1679 4.26324C19.1679 2.22882 16.9795 0 14.982 0C14.1272 0 12.8355 0.602823 12.1113 1.33951ZM0.194192 7.30464C-0.501498 9.15148 0.516503 9.96576 5.80575 11.7913C10.2151 13.3133 10.3859 13.4872 10.6228 16.7034C10.8447 19.7184 10.4646 20.4414 6.64628 24.2681C2.2595 28.6644 1.52864 30.3986 3.70445 31.2487C4.5207 31.5685 6.62367 30.1693 9.51443 27.3854C12.0058 24.9852 14.4663 23.0215 14.982 23.0215C15.4977 23.0215 17.9581 24.9852 20.4496 27.3854C23.3403 30.1693 25.4433 31.5685 26.2595 31.2487C28.4312 30.4003 27.7062 28.6669 23.3537 24.3005C19.8141 20.7501 19.1679 19.6101 19.1679 16.9174C19.1679 13.7967 19.2683 13.697 24.2713 11.839C29.4157 9.92824 31.0138 8.31333 29.3931 6.6626C28.7769 6.03505 26.9335 6.3079 23.2591 7.57238C16.7158 9.82252 13.2239 9.84469 7.02886 7.67384C1.17033 5.62066 0.835465 5.60276 0.194192 7.30464ZM10.1683 32.1125C7.7413 33.1101 9.49182 33.6796 14.982 33.6796C20.6739 33.6796 22.2302 33.1254 19.5178 32.0656C17.9657 31.4585 11.6819 31.4909 10.1683 32.1125ZM6.40098 36.3228C4.21345 37.0075 2.42442 37.9812 2.42442 38.486C2.42442 39.0172 3.04141 39.1553 3.88947 38.8126C4.69566 38.4869 7.52028 37.803 10.1683 37.2923C14.7786 36.4021 21.7581 37.0698 26.0745 38.8126C26.9184 39.1536 27.5396 39.0181 27.5396 38.4937C27.5396 37.1269 19.4491 34.9501 14.6203 35.0183C12.2871 35.0507 8.58851 35.6382 6.40098 36.3228Z" fill="white"/>
</svg>
