<svg width="38" height="35" viewBox="0 0 38 35" fill="none" xmlns="http://www.w3.org/2000/svg">
<path fill-rule="evenodd" clip-rule="evenodd" d="M3.26053 4.03132C1.85986 6.24825 0.466057 9.38832 0.162907 11.0096C-0.529272 14.7134 1.07322 20.2532 3.28802 21.8098C4.2155 22.4615 5.21856 24.2216 5.51742 25.7196C5.81627 27.2185 6.44748 28.4442 6.92152 28.4442C7.47973 28.4442 7.51924 27.1548 7.03402 24.781C6.62181 22.7666 6.28517 18.1009 6.28602 14.4135C6.28688 8.81857 6.10826 7.95404 5.20739 9.19093C4.61398 10.0063 4.11416 12.8292 4.09785 15.4642C4.06865 20.054 4.0154 20.1652 2.83973 18.1009C2.16473 16.9157 1.59879 14.7462 1.58162 13.28C1.54898 10.3933 4.85959 3.34694 6.50759 2.79529C7.0658 2.60825 8.35655 4.17958 9.37678 6.28704C11.4069 10.4813 11.1656 15.3108 8.82888 17.2579C8.13241 17.838 7.56303 18.8939 7.56303 19.605C7.56303 20.6807 7.78889 20.71 8.90789 19.7774C11.4464 17.663 12.9227 13.6506 12.4538 10.1417C11.9883 6.65422 8.1951 0 6.67334 0C6.19671 0 4.66121 1.81353 3.26053 4.03132ZM15.5635 16.3278C11.6423 18.1155 9.5348 21.253 9.04615 26.0351C8.87869 27.6771 7.85416 30.2707 6.77038 31.7989C3.65643 36.1879 5.46074 36.0216 9.37507 31.5584C13.8193 26.4902 18.1089 24.2629 24.773 23.5639C28.1618 23.2088 29.6878 22.7235 29.1417 22.1753C27.8105 20.8393 19.1763 22.3072 14.8781 24.6017L10.9982 26.6721V24.7327C10.9982 20.335 16.393 16.3675 22.3495 16.3856C25.8173 16.3959 34.0213 20.117 34.7444 22.0072C35.4992 23.9828 29.5461 29.8285 25.0075 31.5679C21.4727 32.9229 17.8547 32.8746 12.9304 31.405C11.8673 31.0887 10.9982 31.2007 10.9982 31.655C10.9982 32.6333 16.7305 34.4778 19.7723 34.4778C25.0882 34.4778 31.4578 30.7879 35.6383 25.2869L38 22.1796L35.0896 19.7412C31.7773 16.9657 25.6885 14.6445 21.7948 14.672C20.3434 14.6824 17.5395 15.428 15.5635 16.3278Z" fill="white"/>
</svg>
