<svg width="381" height="462" viewBox="0 0 381 462" fill="none" xmlns="http://www.w3.org/2000/svg">
<path d="M97.7371 434.979C96.7075 435.864 95.5544 436.544 94.2777 437.017C93.001 437.491 91.678 437.728 90.3087 437.728C89.2585 437.728 88.2444 437.589 87.2663 437.311C86.2985 437.043 85.3873 436.662 84.5327 436.168C83.6885 435.663 82.9163 435.061 82.2161 434.361C81.516 433.661 80.9137 432.889 80.4092 432.044C79.915 431.19 79.5289 430.279 79.2509 429.311C78.9833 428.333 78.8494 427.319 78.8494 426.268C78.8494 425.218 78.9833 424.204 79.2509 423.226C79.5289 422.248 79.915 421.337 80.4092 420.492C80.9137 419.638 81.516 418.861 82.2161 418.16C82.9163 417.46 83.6885 416.863 84.5327 416.369C85.3873 415.864 86.2985 415.478 87.2663 415.211C88.2444 414.933 89.2585 414.794 90.3087 414.794C91.678 414.794 93.001 415.031 94.2777 415.504C95.5544 415.967 96.7075 416.647 97.7371 417.543L95.3897 421.404C94.741 420.704 93.974 420.168 93.0886 419.798C92.2031 419.417 91.2765 419.226 90.3087 419.226C89.3306 419.226 88.4142 419.411 87.5597 419.782C86.7051 420.153 85.9587 420.657 85.3203 421.296C84.682 421.924 84.1775 422.67 83.8069 423.535C83.4362 424.389 83.2509 425.301 83.2509 426.268C83.2509 427.236 83.4362 428.147 83.8069 429.002C84.1775 429.846 84.682 430.588 85.3203 431.226C85.9587 431.864 86.7051 432.369 87.5597 432.739C88.4142 433.11 89.3306 433.295 90.3087 433.295C91.2765 433.295 92.2031 433.11 93.0886 432.739C93.974 432.358 94.741 431.818 95.3897 431.118L97.7371 434.979ZM126.11 426.268C126.11 427.319 125.971 428.333 125.693 429.311C125.426 430.279 125.045 431.19 124.551 432.044C124.056 432.889 123.459 433.661 122.759 434.361C122.059 435.061 121.287 435.663 120.443 436.168C119.598 436.662 118.687 437.043 117.709 437.311C116.731 437.589 115.717 437.728 114.667 437.728C113.616 437.728 112.602 437.589 111.624 437.311C110.656 437.043 109.745 436.662 108.891 436.168C108.046 435.663 107.274 435.061 106.574 434.361C105.874 433.661 105.272 432.889 104.767 432.044C104.273 431.19 103.887 430.279 103.609 429.311C103.341 428.333 103.207 427.319 103.207 426.268C103.207 425.218 103.341 424.204 103.609 423.226C103.887 422.248 104.273 421.337 104.767 420.492C105.272 419.648 105.874 418.876 106.574 418.176C107.274 417.476 108.046 416.879 108.891 416.384C109.745 415.89 110.656 415.509 111.624 415.242C112.602 414.964 113.616 414.825 114.667 414.825C115.717 414.825 116.731 414.964 117.709 415.242C118.687 415.509 119.598 415.89 120.443 416.384C121.287 416.879 122.059 417.476 122.759 418.176C123.459 418.876 124.056 419.648 124.551 420.492C125.045 421.337 125.426 422.248 125.693 423.226C125.971 424.204 126.11 425.218 126.11 426.268ZM121.709 426.268C121.709 425.301 121.524 424.389 121.153 423.535C120.782 422.67 120.278 421.924 119.639 421.296C119.011 420.657 118.265 420.153 117.4 419.782C116.546 419.411 115.634 419.226 114.667 419.226C113.688 419.226 112.772 419.411 111.918 419.782C111.063 420.153 110.317 420.657 109.678 421.296C109.04 421.924 108.535 422.67 108.165 423.535C107.794 424.389 107.609 425.301 107.609 426.268C107.609 427.236 107.794 428.147 108.165 429.002C108.535 429.846 109.04 430.588 109.678 431.226C110.317 431.864 111.063 432.369 111.918 432.739C112.772 433.11 113.688 433.295 114.667 433.295C115.634 433.295 116.546 433.11 117.4 432.739C118.265 432.369 119.011 431.864 119.639 431.226C120.278 430.588 120.782 429.846 121.153 429.002C121.524 428.147 121.709 427.236 121.709 426.268ZM155.75 430.917C155.75 431.833 155.575 432.698 155.225 433.512C154.885 434.315 154.412 435.02 153.804 435.627C153.207 436.225 152.502 436.698 151.688 437.048C150.885 437.388 150.026 437.558 149.109 437.558C148.286 437.558 147.493 437.414 146.731 437.125C145.979 436.837 145.3 436.415 144.692 435.859C144.085 436.415 143.4 436.837 142.638 437.125C141.876 437.414 141.084 437.558 140.26 437.558C139.344 437.558 138.479 437.388 137.665 437.048C136.862 436.698 136.157 436.225 135.55 435.627C134.952 435.02 134.479 434.315 134.129 433.512C133.789 432.698 133.619 431.833 133.619 430.917V415.103H138.052V430.917C138.052 431.226 138.108 431.519 138.221 431.797C138.335 432.065 138.489 432.302 138.685 432.508C138.891 432.703 139.127 432.858 139.395 432.971C139.663 433.084 139.951 433.141 140.26 433.141C140.569 433.141 140.857 433.084 141.125 432.971C141.393 432.858 141.624 432.703 141.82 432.508C142.026 432.302 142.185 432.065 142.299 431.797C142.412 431.519 142.468 431.226 142.468 430.917V415.103H146.901V430.917C146.901 431.226 146.957 431.519 147.071 431.797C147.184 432.065 147.338 432.302 147.534 432.508C147.74 432.703 147.977 432.858 148.244 432.971C148.512 433.084 148.8 433.141 149.109 433.141C149.418 433.141 149.706 433.084 149.974 432.971C150.242 432.858 150.473 432.703 150.669 432.508C150.875 432.302 151.035 432.065 151.148 431.797C151.271 431.519 151.333 431.226 151.333 430.917V415.103H155.75V430.917ZM186.162 426.268C186.162 427.319 186.023 428.333 185.745 429.311C185.477 430.279 185.096 431.19 184.602 432.044C184.108 432.889 183.511 433.661 182.811 434.361C182.111 435.061 181.338 435.663 180.494 436.168C179.65 436.662 178.739 437.043 177.761 437.311C176.782 437.589 175.768 437.728 174.718 437.728C173.668 437.728 172.654 437.589 171.676 437.311C170.708 437.043 169.797 436.662 168.942 436.168C168.098 435.663 167.326 435.061 166.626 434.361C165.925 433.661 165.323 432.889 164.819 432.044C164.324 431.19 163.938 430.279 163.66 429.311C163.393 428.333 163.259 427.319 163.259 426.268C163.259 425.218 163.393 424.204 163.66 423.226C163.938 422.248 164.324 421.337 164.819 420.492C165.323 419.648 165.925 418.876 166.626 418.176C167.326 417.476 168.098 416.879 168.942 416.384C169.797 415.89 170.708 415.509 171.676 415.242C172.654 414.964 173.668 414.825 174.718 414.825C175.768 414.825 176.782 414.964 177.761 415.242C178.739 415.509 179.65 415.89 180.494 416.384C181.338 416.879 182.111 417.476 182.811 418.176C183.511 418.876 184.108 419.648 184.602 420.492C185.096 421.337 185.477 422.248 185.745 423.226C186.023 424.204 186.162 425.218 186.162 426.268ZM181.76 426.268C181.76 425.301 181.575 424.389 181.205 423.535C180.834 422.67 180.329 421.924 179.691 421.296C179.063 420.657 178.317 420.153 177.452 419.782C176.597 419.411 175.686 419.226 174.718 419.226C173.74 419.226 172.824 419.411 171.969 419.782C171.115 420.153 170.368 420.657 169.73 421.296C169.091 421.924 168.587 422.67 168.216 423.535C167.846 424.389 167.66 425.301 167.66 426.268C167.66 427.236 167.846 428.147 168.216 429.002C168.587 429.846 169.091 430.588 169.73 431.226C170.368 431.864 171.115 432.369 171.969 432.739C172.824 433.11 173.74 433.295 174.718 433.295C175.686 433.295 176.597 433.11 177.452 432.739C178.317 432.369 179.063 431.864 179.691 431.226C180.329 430.588 180.834 429.846 181.205 429.002C181.575 428.147 181.76 427.236 181.76 426.268ZM198.258 419.535V428.4H202.69C203.297 428.4 203.869 428.286 204.404 428.06C204.94 427.823 205.408 427.504 205.81 427.102C206.211 426.701 206.525 426.232 206.752 425.697C206.988 425.151 207.107 424.575 207.107 423.967C207.107 423.36 206.988 422.788 206.752 422.253C206.525 421.707 206.211 421.234 205.81 420.832C205.408 420.431 204.94 420.117 204.404 419.89C203.869 419.653 203.297 419.535 202.69 419.535H198.258ZM198.258 437.249H193.825V415.103H202.69C203.503 415.103 204.286 415.211 205.037 415.427C205.789 415.633 206.489 415.931 207.138 416.323C207.797 416.704 208.394 417.167 208.929 417.713C209.475 418.248 209.938 418.845 210.319 419.504C210.71 420.163 211.009 420.868 211.215 421.62C211.431 422.371 211.539 423.154 211.539 423.967C211.539 424.729 211.441 425.471 211.246 426.191C211.06 426.912 210.788 427.597 210.427 428.245C210.077 428.894 209.645 429.491 209.13 430.037C208.615 430.582 208.039 431.056 207.4 431.458L209.856 437.249H205.145L203.215 432.786L198.258 432.817V437.249ZM223.635 437.249H219.202V415.103H223.635V426.176L231.882 415.103H236.916L229.92 424.446L236.916 437.249H231.882L227.017 428.292L223.635 432.817V437.249ZM248.147 437.249H243.715V415.103H248.147V437.249ZM274.729 437.249H269.988L261.447 422.67V437.249H257.015V415.103H261.756L270.297 429.697V415.103H274.729V437.249ZM301.218 435.01C300.188 435.885 299.04 436.559 297.774 437.033C296.508 437.496 295.19 437.728 293.82 437.728C292.77 437.728 291.756 437.589 290.778 437.311C289.81 437.043 288.904 436.662 288.06 436.168C287.216 435.663 286.443 435.066 285.743 434.376C285.043 433.676 284.446 432.904 283.952 432.06C283.458 431.205 283.072 430.289 282.794 429.311C282.526 428.333 282.392 427.319 282.392 426.268C282.392 425.218 282.526 424.209 282.794 423.241C283.072 422.274 283.458 421.368 283.952 420.523C284.446 419.669 285.043 418.897 285.743 418.207C286.443 417.507 287.216 416.91 288.06 416.415C288.904 415.921 289.81 415.54 290.778 415.272C291.756 414.994 292.77 414.856 293.82 414.856C295.19 414.856 296.508 415.092 297.774 415.566C299.04 416.029 300.188 416.698 301.218 417.574L298.901 421.435C298.232 420.755 297.46 420.225 296.585 419.844C295.71 419.453 294.788 419.257 293.82 419.257C292.853 419.257 291.941 419.442 291.087 419.813C290.243 420.184 289.501 420.688 288.863 421.326C288.225 421.954 287.72 422.696 287.35 423.55C286.979 424.395 286.794 425.301 286.794 426.268C286.794 427.247 286.979 428.163 287.35 429.017C287.72 429.872 288.225 430.618 288.863 431.257C289.501 431.895 290.243 432.4 291.087 432.77C291.941 433.141 292.853 433.326 293.82 433.326C294.376 433.326 294.917 433.259 295.442 433.125C295.967 432.992 296.466 432.806 296.94 432.57V426.268H301.218V435.01Z" fill="white"/>
<path d="M2.3089 377.974H5.69319V401H2.75171V380.062C2.75171 380.041 2.70954 379.872 2.62519 379.556C2.56194 379.239 2.49868 378.913 2.43542 378.575C2.37216 378.238 2.32999 378.037 2.3089 377.974ZM25.1316 377.974L35.1895 393.441C35.3793 393.736 35.5796 394.052 35.7905 394.39C36.0014 394.706 36.2122 395.012 36.4231 395.307C36.402 394.948 36.3809 394.59 36.3598 394.231C36.3387 393.852 36.3282 393.493 36.3282 393.156V377.974H38.732V401.158H36.8659L25.1316 383.193C24.9629 382.919 24.7731 382.634 24.5623 382.339C24.3725 382.023 24.1722 381.727 23.9613 381.453C24.0035 381.791 24.0246 382.139 24.0246 382.497C24.0457 382.835 24.0562 383.172 24.0562 383.509V401H21.6524V380.062L21.2096 377.974H25.1316ZM63.8727 401.38C62.0593 401.38 60.4884 401.063 59.16 400.431C57.8527 399.798 56.7668 398.944 55.9022 397.869C55.0377 396.772 54.3946 395.539 53.9729 394.168C53.5722 392.798 53.3719 391.385 53.3719 389.93C53.3719 388.348 53.6039 386.83 54.0678 385.375C54.5316 383.899 55.2064 382.581 56.092 381.422C56.9987 380.262 58.1268 379.345 59.4763 378.67C60.8258 377.995 62.3861 377.658 64.1574 377.658C64.8954 377.658 65.6966 377.753 66.5611 377.943C67.4468 378.111 68.2902 378.375 69.0915 378.733C69.8927 379.092 70.5464 379.566 71.0524 380.157L69.4077 381.991C69.0071 381.527 68.501 381.148 67.8896 380.852C67.2781 380.536 66.6349 380.294 65.9602 380.125C65.3065 379.956 64.6845 379.872 64.0941 379.872C62.8711 379.872 61.7957 380.157 60.868 380.726C59.9402 381.274 59.16 382.023 58.5274 382.972C57.8948 383.92 57.4099 384.985 57.0725 386.166C56.7562 387.347 56.5981 388.549 56.5981 389.772C56.5981 391.669 56.9038 393.314 57.5153 394.706C58.1268 396.076 58.9913 397.141 60.1089 397.9C61.2264 398.638 62.5443 399.007 64.0625 399.007C64.9481 399.007 65.9075 398.881 66.9407 398.628C67.9739 398.375 69.0387 397.974 70.1352 397.426L71.1157 399.229C70.6518 399.566 70.1141 399.872 69.5026 400.146C68.9122 400.399 68.2796 400.62 67.6049 400.81C66.9512 401 66.2976 401.137 65.6439 401.221C65.0113 401.327 64.4209 401.38 63.8727 401.38ZM93.2677 401.348C91.5598 401.348 90.0627 401.032 88.7764 400.399C87.5113 399.766 86.457 398.902 85.6136 397.805C84.7701 396.688 84.1375 395.423 83.7158 394.01C83.2941 392.597 83.0833 391.1 83.0833 389.519C83.0833 387.937 83.2836 386.44 83.6842 385.027C84.1059 383.594 84.7385 382.328 85.5819 381.232C86.4254 380.114 87.4902 379.239 88.7764 378.607C90.0627 377.974 91.5703 377.658 93.2994 377.658C95.0284 377.658 96.5255 377.974 97.7907 378.607C99.0769 379.239 100.142 380.114 100.985 381.232C101.829 382.328 102.451 383.594 102.851 385.027C103.273 386.44 103.484 387.937 103.484 389.519C103.484 391.1 103.273 392.608 102.851 394.042C102.43 395.454 101.797 396.709 100.954 397.805C100.11 398.902 99.0453 399.766 97.759 400.399C96.4939 401.032 94.9968 401.348 93.2677 401.348ZM93.2994 399.197C94.6489 399.197 95.777 398.912 96.6837 398.343C97.5903 397.774 98.3178 397.015 98.866 396.066C99.4143 395.117 99.8044 394.073 100.036 392.935C100.289 391.796 100.416 390.657 100.416 389.519C100.416 388.38 100.289 387.241 100.036 386.103C99.8044 384.964 99.4143 383.931 98.866 383.003C98.3178 382.054 97.5798 381.295 96.652 380.726C95.7453 380.157 94.6278 379.872 93.2994 379.872C91.971 379.872 90.8429 380.157 89.9151 380.726C89.0084 381.295 88.2809 382.054 87.7327 383.003C87.2055 383.952 86.8155 384.996 86.5624 386.134C86.3305 387.273 86.2145 388.412 86.2145 389.55C86.2145 390.689 86.3305 391.828 86.5624 392.966C86.8155 394.084 87.2055 395.117 87.7327 396.066C88.2809 397.015 89.0084 397.774 89.9151 398.343C90.8429 398.912 91.971 399.197 93.2994 399.197ZM117.632 377.974H124.495C125.95 377.974 127.268 378.164 128.449 378.544C129.629 378.902 130.557 379.545 131.232 380.473C131.928 381.401 132.276 382.687 132.276 384.332C132.276 385.175 132.075 385.987 131.675 386.767C131.274 387.547 130.736 388.232 130.062 388.823C129.408 389.392 128.681 389.803 127.879 390.056L134.332 401H130.916L124.969 390.657H121.016V401H118.074V380.062L117.632 377.974ZM121.016 380.157V388.507H123.546C124.6 388.507 125.549 388.391 126.393 388.159C127.257 387.906 127.943 387.463 128.449 386.83C128.955 386.198 129.208 385.302 129.208 384.142C129.208 383.235 128.986 382.497 128.544 381.928C128.101 381.337 127.521 380.895 126.804 380.599C126.087 380.304 125.317 380.157 124.495 380.157H121.016ZM146.756 377.974H153.651C155.169 377.974 156.508 378.217 157.668 378.702C158.849 379.166 159.766 379.904 160.42 380.916C161.073 381.928 161.4 383.267 161.4 384.933C161.4 386.472 161.052 387.758 160.356 388.791C159.661 389.824 158.733 390.605 157.573 391.132C156.413 391.638 155.117 391.891 153.683 391.891H150.172V401H147.23V380.062L146.756 377.974ZM150.172 380.157V389.74H153.62C155.074 389.74 156.224 389.297 157.067 388.412C157.91 387.526 158.332 386.366 158.332 384.933C158.332 383.435 157.932 382.265 157.13 381.422C156.329 380.578 155.169 380.157 153.651 380.157H150.172ZM184.78 401.348C183.072 401.348 181.575 401.032 180.289 400.399C179.024 399.766 177.969 398.902 177.126 397.805C176.282 396.688 175.65 395.423 175.228 394.01C174.806 392.597 174.596 391.1 174.596 389.519C174.596 387.937 174.796 386.44 175.197 385.027C175.618 383.594 176.251 382.328 177.094 381.232C177.938 380.114 179.003 379.239 180.289 378.607C181.575 377.974 183.083 377.658 184.812 377.658C186.541 377.658 188.038 377.974 189.303 378.607C190.589 379.239 191.654 380.114 192.498 381.232C193.341 382.328 193.963 383.594 194.364 385.027C194.785 386.44 194.996 387.937 194.996 389.519C194.996 391.1 194.785 392.608 194.364 394.042C193.942 395.454 193.309 396.709 192.466 397.805C191.622 398.902 190.558 399.766 189.271 400.399C188.006 401.032 186.509 401.348 184.78 401.348ZM184.812 399.197C186.161 399.197 187.289 398.912 188.196 398.343C189.103 397.774 189.83 397.015 190.378 396.066C190.927 395.117 191.317 394.073 191.549 392.935C191.802 391.796 191.928 390.657 191.928 389.519C191.928 388.38 191.802 387.241 191.549 386.103C191.317 384.964 190.927 383.931 190.378 383.003C189.83 382.054 189.092 381.295 188.164 380.726C187.258 380.157 186.14 379.872 184.812 379.872C183.483 379.872 182.355 380.157 181.427 380.726C180.521 381.295 179.793 382.054 179.245 383.003C178.718 383.952 178.328 384.996 178.075 386.134C177.843 387.273 177.727 388.412 177.727 389.55C177.727 390.689 177.843 391.828 178.075 392.966C178.328 394.084 178.718 395.117 179.245 396.066C179.793 397.015 180.521 397.774 181.427 398.343C182.355 398.912 183.483 399.197 184.812 399.197ZM209.144 377.974H216.007C217.462 377.974 218.78 378.164 219.961 378.544C221.142 378.902 222.07 379.545 222.744 380.473C223.44 381.401 223.788 382.687 223.788 384.332C223.788 385.175 223.588 385.987 223.187 386.767C222.786 387.547 222.249 388.232 221.574 388.823C220.92 389.392 220.193 389.803 219.392 390.056L225.844 401H222.428L216.482 390.657H212.528V401H209.587V380.062L209.144 377.974ZM212.528 380.157V388.507H215.059C216.113 388.507 217.062 388.391 217.905 388.159C218.77 387.906 219.455 387.463 219.961 386.83C220.467 386.198 220.72 385.302 220.72 384.142C220.72 383.235 220.499 382.497 220.056 381.928C219.613 381.337 219.033 380.895 218.316 380.599C217.599 380.304 216.83 380.157 216.007 380.157H212.528ZM246.855 377.974L254.825 401H251.567L248.911 393.093H241.32L238.631 401H235.974L243.976 377.974H246.855ZM245.147 381.833L242.047 390.942H248.183L245.147 381.833ZM286.449 389.55C286.449 391.764 286.07 393.736 285.311 395.465C284.573 397.173 283.434 398.522 281.895 399.513C280.356 400.504 278.395 401 276.012 401H268.516V380.062C268.516 380.041 268.474 379.872 268.389 379.556C268.326 379.239 268.263 378.913 268.2 378.575C268.136 378.238 268.094 378.037 268.073 377.974H273.988C275.907 377.974 277.636 378.196 279.175 378.638C280.714 379.06 282.021 379.735 283.097 380.663C284.193 381.569 285.026 382.761 285.595 384.237C286.165 385.692 286.449 387.463 286.449 389.55ZM283.381 389.487C283.381 387.821 283.171 386.398 282.749 385.217C282.348 384.036 281.737 383.077 280.914 382.339C280.113 381.58 279.112 381.032 277.91 380.694C276.729 380.336 275.348 380.157 273.766 380.157H271.457V398.818H275.632C277.551 398.818 279.069 398.396 280.187 397.552C281.326 396.709 282.137 395.581 282.622 394.168C283.128 392.755 283.381 391.195 283.381 389.487ZM309.988 401.348C308.28 401.348 306.783 401.032 305.497 400.399C304.232 399.766 303.178 398.902 302.334 397.805C301.491 396.688 300.858 395.423 300.436 394.01C300.015 392.597 299.804 391.1 299.804 389.519C299.804 387.937 300.004 386.44 300.405 385.027C300.826 383.594 301.459 382.328 302.302 381.232C303.146 380.114 304.211 379.239 305.497 378.607C306.783 377.974 308.291 377.658 310.02 377.658C311.749 377.658 313.246 377.974 314.511 378.607C315.797 379.239 316.862 380.114 317.706 381.232C318.549 382.328 319.171 383.594 319.572 385.027C319.994 386.44 320.204 387.937 320.204 389.519C320.204 391.1 319.994 392.608 319.572 394.042C319.15 395.454 318.517 396.709 317.674 397.805C316.831 398.902 315.766 399.766 314.48 400.399C313.214 401.032 311.717 401.348 309.988 401.348ZM310.02 399.197C311.369 399.197 312.497 398.912 313.404 398.343C314.311 397.774 315.038 397.015 315.587 396.066C316.135 395.117 316.525 394.073 316.757 392.935C317.01 391.796 317.136 390.657 317.136 389.519C317.136 388.38 317.01 387.241 316.757 386.103C316.525 384.964 316.135 383.931 315.587 383.003C315.038 382.054 314.3 381.295 313.373 380.726C312.466 380.157 311.348 379.872 310.02 379.872C308.691 379.872 307.563 380.157 306.636 380.726C305.729 381.295 305.001 382.054 304.453 383.003C303.926 383.952 303.536 384.996 303.283 386.134C303.051 387.273 302.935 388.412 302.935 389.55C302.935 390.689 303.051 391.828 303.283 392.966C303.536 394.084 303.926 395.117 304.453 396.066C305.001 397.015 305.729 397.774 306.636 398.343C307.563 398.912 308.691 399.197 310.02 399.197ZM334.352 377.974H341.216C342.67 377.974 343.988 378.164 345.169 378.544C346.35 378.902 347.278 379.545 347.952 380.473C348.648 381.401 348.996 382.687 348.996 384.332C348.996 385.175 348.796 385.987 348.395 386.767C347.995 387.547 347.457 388.232 346.782 388.823C346.129 389.392 345.401 389.803 344.6 390.056L351.052 401H347.636L341.69 390.657H337.736V401H334.795V380.062L334.352 377.974ZM337.736 380.157V388.507H340.267C341.321 388.507 342.27 388.391 343.113 388.159C343.978 387.906 344.663 387.463 345.169 386.83C345.675 386.198 345.928 385.302 345.928 384.142C345.928 383.235 345.707 382.497 345.264 381.928C344.821 381.337 344.241 380.895 343.524 380.599C342.808 380.304 342.038 380.157 341.216 380.157H337.736ZM372.063 377.974L380.033 401H376.775L374.119 393.093H366.528L363.839 401H361.182L369.185 377.974H372.063ZM370.355 381.833L367.255 390.942H373.391L370.355 381.833Z" fill="white"/>
<path d="M64 0H127V12H160V0H220V12H253V0H316V30H64V0Z" fill="white"/>
<rect x="64" y="36" width="252" height="18" fill="white"/>
<path d="M64 60H316V297L190 360L64 297V60Z" fill="white"/>
<path d="M76 72H304V290.04L190 348L76 290.04V72Z" fill="#FF8628"/>
<path d="M88 84H292V278.34L190 330L88 278.34V84Z" fill="#1B1819"/>
<path d="M100 96H280V271.38L190 318L100 271.38V96Z" fill="white"/>
<rect x="116" y="456" width="149" height="6" fill="#F58531"/>
<path d="M190.702 202.934C193.957 202.934 195.983 202.657 196.782 202.105C197.58 201.521 198.056 200.907 198.209 200.263C198.363 199.618 198.44 198.835 198.44 197.914V149.002C198.44 147.006 198.102 145.762 197.426 145.271C196.198 144.411 193.957 143.981 190.702 143.981V138.915H215.434C235.269 138.915 247.198 145.425 251.22 158.443C252.449 162.496 253.063 166.856 253.063 171.523C253.063 176.16 252.602 180.243 251.681 183.774C250.76 187.275 249.47 190.376 247.812 193.078C244.65 198.205 240.305 201.982 234.778 204.408C229.282 206.803 223.141 208 216.356 208H190.702V202.934ZM217.369 202.888C233.151 202.888 241.042 192.602 241.042 172.03C241.042 163.248 238.862 156.309 234.502 151.212C230.142 146.085 223.648 143.521 215.02 143.521H208.802V202.888H217.369Z" fill="#FF8728"/>
<path fill-rule="evenodd" clip-rule="evenodd" d="M130 134.271V139.097L135.803 139.517C146.032 140.259 145.362 136.604 145.362 191.646C145.362 238.085 145.309 239.359 143.295 241.595C141.708 243.359 139.928 244.033 135.614 244.504L130 245.117V249.488V253.859H174.548H219.097L219.093 243.345V219.344H213.478C212.675 231.786 206.175 238.242 202.642 239.411C200.979 239.961 196.634 244.016 185.747 244.016H161.304C164.206 242.946 165.438 241.952 166.868 239.411V194.402V144.788L169.19 142.428C170.964 140.626 172.84 139.927 177.127 139.47L182.741 138.871V134.397V129.923L156.371 129.684L130 129.445V134.271Z" fill="#FF8728"/>
</svg>
