<svg width="1440" height="124" viewBox="0 0 1440 124" fill="none" xmlns="http://www.w3.org/2000/svg">
<g clip-path="url(#clip0_337_8)">
<path d="M-90 68.1782C-24.0528 32.1614 169.811 -18.2622 417.689 68.1782C727.536 176.229 870.945 37.4438 980.334 34.0822C1089.72 30.7206 1132.12 104.675 1278.14 81.8646C1393.76 63.8045 1390 49 1438 37C1456 32.5 1500.5 25.5 1500.5 25.5C1500.5 25.5 1543.15 101.794 1518.38 115C1518.38 115 824.5 107.5 768.5 115C712.5 122.5 681 123 627 115C573 107 -90 115 -90 115V68.1782Z" fill="white" fill-opacity="0.8"/>
<path d="M0 36.5C63.01 7.0601 246.5 4.00009 485.077 85.7282C783 164 918.145 60.6061 1022.66 57.8584C1127.18 55.1107 1167.68 115.561 1307.21 96.9153C1446.73 78.2701 1406.72 4.08162 1513.24 39.4094C1598.45 67.6717 1560.41 113.205 1536.74 124H0V36.5Z" fill="white"/>
<path d="M346 77.7282C409.01 48.2883 594.239 7.07254 831.077 77.7282C1127.12 166.048 1264.15 52.6061 1368.66 49.8584C1473.18 47.1107 1513.68 107.561 1653.21 88.9153C1792.73 70.2701 1752.72 -3.91838 1859.24 31.4094C1944.45 59.6717 1906.41 105.205 1882.74 116H346V77.7282Z" fill="white" fill-opacity="0.4"/>
</g>
<defs>
<clipPath id="clip0_337_8">
<rect width="1440" height="124" fill="white"/>
</clipPath>
</defs>
</svg>
