<svg width="64" height="64" viewBox="0 0 64 64" fill="none" xmlns="http://www.w3.org/2000/svg">
<path fill-rule="evenodd" clip-rule="evenodd" d="M27.717 0.268281C10.8749 2.37343 -1.6598 18.3035 0.17919 35.2667C1.17647 44.4668 5.67421 52.303 13.1607 57.884C24.0997 66.0387 39.8824 66.0387 50.8214 57.884C67.07 45.7714 68.5212 22.6692 53.9059 8.78127C46.8289 2.05641 37.5485 -0.960201 27.717 0.268281ZM38.4585 6.75366C47.7435 9.18782 55.0539 16.6451 57.406 26.0821C58.0751 28.7665 58.0751 35.2742 57.406 37.9586C55.0123 47.5621 47.5241 55.0545 37.926 57.4496C35.243 58.119 28.739 58.119 26.0561 57.4496C12.6284 54.0988 3.97798 41.0428 6.31617 27.6561C8.1922 16.9159 16.5648 8.38584 27.2138 6.36593C30.1899 5.80144 35.5288 5.98561 38.4585 6.75366ZM22.2539 20.1022C21.4498 20.2587 20.2633 21.4538 20.1086 22.2629C19.8356 23.6915 20.4513 24.6244 24.0045 28.1673C25.968 30.125 27.5745 31.8587 27.5745 32.0204C27.5745 32.182 25.968 33.9157 24.0045 35.8734C20.4513 39.4163 19.8356 40.3492 20.1086 41.7778C20.2647 42.594 21.4233 43.7532 22.239 43.9095C23.6669 44.1826 24.5992 43.5665 28.1401 40.0113C30.0968 38.0467 31.8295 36.4394 31.991 36.4394C32.1526 36.4394 33.8853 38.0467 35.842 40.0113C39.3829 43.5665 40.3152 44.1826 41.743 43.9095C42.5588 43.7532 43.7173 42.594 43.8735 41.7778C44.1465 40.3492 43.5307 39.4163 39.9775 35.8734C38.014 33.9157 36.4076 32.182 36.4076 32.0204C36.4076 31.8587 38.014 30.125 39.9775 28.1673C43.5307 24.6244 44.1465 23.6915 43.8735 22.2629C43.7071 21.3925 42.5397 20.2838 41.6008 20.1042C40.2881 19.853 39.2438 20.5692 35.6998 24.1505C33.8215 26.0484 32.1526 27.6014 31.991 27.6014C31.8295 27.6014 30.1606 26.0484 28.2823 24.1505C25.4794 21.3181 23.4398 19.7076 22.9534 19.9425C22.9092 19.9639 22.5944 20.0357 22.2539 20.1022Z" fill="#FEFEFE"/>
</svg>
