<svg width="152" height="152" viewBox="0 0 152 152" fill="none" xmlns="http://www.w3.org/2000/svg">
<path d="M9.07592 112.307L9.51555 112.068C5.38454 104.443 2.40122 95.4316 1.05398 86.5032C0.725559 84.3265 0.535847 80.4134 0.504602 76.4889C0.473351 72.5636 0.601089 68.6827 0.895065 66.5693L0.3999 66.5004L0.895066 66.5693C5.84278 30.9953 33.3364 4.36099 68.9114 0.673366L68.8599 0.176081L68.9115 0.673365C70.6508 0.493026 74.1584 0.460907 77.6961 0.542311C81.2336 0.62371 84.7427 0.817274 86.485 1.07773C95.5593 2.43456 104.27 5.30717 111.87 9.44563L112.109 9.00651L111.87 9.44564C113.905 10.5538 114.903 11.4678 115.212 12.4022C115.511 13.3033 115.22 14.4042 114.119 16.0628C113.491 17.0075 112.397 18.2327 111.246 19.3314C110.089 20.437 108.93 21.3612 108.185 21.7411L108.372 22.1081L108.185 21.7411C106.371 22.6664 104.67 23.1135 102.814 23.0995C100.949 23.0856 98.8956 22.6059 96.381 21.6288C88.1111 18.4153 82.0992 17.2353 73.9173 17.2269C61.1368 17.2137 48.6761 21.3636 38.3682 29.064L38.6675 29.4646L38.3682 29.064C35.357 31.3137 30.0364 36.4463 27.6363 39.4163C17.93 51.4268 12.9246 67.4441 14.1696 82.529C15.6497 100.463 23.9944 116.171 37.9514 127.291C47.0063 134.505 58.573 139.302 70.4346 140.769C72.2021 140.987 75.1756 141.095 78.0977 141.097C81.0183 141.099 83.9339 140.994 85.5831 140.776C102.357 138.566 117.161 130.728 127.761 118.433C136.978 107.741 142.589 94.6892 144.05 80.5423C144.492 76.2701 144.24 67.4001 143.563 63.4417C143.12 60.853 142.99 59.198 143.216 57.9083C143.435 56.6527 143.999 55.7027 145.065 54.5463C145.766 53.7863 146.413 53.2749 146.931 53.0157C147.481 52.7404 147.715 52.8229 147.79 52.8857C147.79 52.8856 147.79 52.8857 147.791 52.8859C147.793 52.8885 147.815 52.9099 147.854 52.9673C147.894 53.0271 147.942 53.1102 147.996 53.2198C148.105 53.4392 148.229 53.738 148.363 54.1124C148.63 54.8596 148.927 55.8699 149.232 57.0653C149.841 59.4541 150.472 62.5485 150.957 65.6844C151.277 67.7571 151.463 71.6472 151.495 75.5508C151.527 79.4553 151.403 83.3114 151.117 85.3172C148.629 102.725 141.395 117.503 129.534 129.432C117.732 141.302 102.748 148.655 85.2989 151.128C83.5512 151.375 79.7718 151.502 75.9482 151.5C72.1252 151.498 68.3293 151.369 66.5495 151.12C49.5116 148.734 34.1753 141.164 22.4003 129.333C17.2132 124.122 12.9506 118.41 9.51556 112.068L9.07592 112.307ZM51.9866 79.2484L51.5666 79.5197L51.9866 79.2484C49.0905 74.7662 45.2111 68.8023 41.6866 63.4141C40.8376 62.1159 40.0496 60.8308 39.4646 59.8079C39.1718 59.2959 38.9324 58.854 38.7623 58.5113C38.6771 58.3397 38.6118 58.1978 38.5663 58.0873C38.5436 58.0321 38.5273 57.9883 38.5164 57.9549C38.5069 57.9262 38.5037 57.912 38.5031 57.9093C38.5029 57.9086 38.5029 57.9086 38.503 57.9092C38.4093 57.3319 38.5852 56.6395 38.9848 56.0068C39.3825 55.377 39.9688 54.8605 40.6149 54.6138C40.6568 54.5978 40.6971 54.5823 40.736 54.5674C41.2893 54.3549 41.5444 54.2569 41.9513 54.3564C42.441 54.4761 43.1739 54.9 44.5659 56.0669C47.211 58.2841 51.9725 62.9451 61.5496 72.3198C61.9566 72.7182 62.3722 73.1251 62.7968 73.5406C65.6278 76.3115 68.3762 78.966 68.8969 79.4308C69.3035 79.7938 69.7019 80.101 70.1387 80.2634C70.6033 80.4362 71.0715 80.4319 71.5839 80.2546C72.0737 80.0849 72.6056 79.7567 73.2289 79.289C73.8569 78.8178 74.6106 78.1795 75.5451 77.3614C81.2132 72.3997 82.8986 70.9344 84.3478 69.7077C85.1259 69.0494 87.4884 66.9876 89.5978 65.1263C91.7076 63.2647 94.2359 61.0425 95.2163 60.1881C103.418 53.0408 107.441 49.5251 109.349 47.8377C115.265 42.6049 122.963 35.8934 129.247 30.4637C132.389 27.7489 135.177 25.3553 137.211 23.6276C138.229 22.7635 139.057 22.0672 139.645 21.5809C139.94 21.3374 140.173 21.1485 140.339 21.0181C140.422 20.9525 140.485 20.9044 140.529 20.8724C140.541 20.8638 140.55 20.8571 140.558 20.8521C141.827 20.3584 143.137 20.8253 143.988 21.7727C144.847 22.7284 145.169 24.0951 144.52 25.3118C144.521 25.311 144.52 25.3114 144.519 25.3134C144.516 25.3177 144.509 25.3294 144.495 25.3503C144.475 25.3781 144.449 25.4144 144.414 25.4596C144.345 25.5501 144.251 25.6673 144.134 25.8093C143.899 26.0928 143.58 26.4644 143.197 26.8987C142.432 27.7669 141.423 28.8773 140.354 30.0195C134.725 36.038 124.922 46.5452 119.943 51.8965L120.31 52.2371L119.943 51.8966C117.578 54.4398 113.09 59.2583 109.971 62.6041C106.852 65.9502 102.31 70.8296 99.8777 73.4474C97.4453 76.0649 94.6349 79.0752 93.6325 80.1369C92.6272 81.2017 89.8728 84.1488 87.5115 86.686C81.6751 92.9572 78.7158 96.133 77.0042 97.8459C76.1485 98.7024 75.6204 99.1769 75.211 99.4862C74.8119 99.7877 74.5183 99.938 74.1067 100.139C71.1056 101.607 67.3964 100.998 64.9529 98.6229C64.6757 98.3534 64.158 97.7095 63.5357 96.86C62.9218 96.0218 62.2281 95.0143 61.6045 94.0417L61.2444 94.2726L61.6045 94.0417C60.3446 92.0769 58.1091 88.6317 56.6359 86.3845C55.1639 84.1392 53.0716 80.9278 51.9866 79.2484Z" fill="#00A53C" stroke="#009920"/>
</svg>
