<svg width="31" height="31" viewBox="0 0 31 31" fill="none" xmlns="http://www.w3.org/2000/svg">
<path fill-rule="evenodd" clip-rule="evenodd" d="M4 13.1201V22.2402H15.625H27.25V13.1201V4H15.625H4V13.1201ZM24.7589 13.1201V19.7529H15.625C6.8282 19.7529 6.47114 19.5788 5.95134 15.0536C4.99643 6.71614 6.41966 5.43435 16.0219 5.98487L24.7589 6.4873V13.1201ZM7.32143 7.95481C7.32143 8.30635 9.18973 9.81532 11.4732 11.3094C15.3228 13.8282 15.9306 13.8249 19.8283 11.2762C22.14 9.76226 23.6396 8.1339 23.1597 7.65468C22.6814 7.17546 20.7898 8.13888 18.9564 9.79376C15.8509 12.6011 15.4191 12.6193 12.5876 10.0607C9.73279 7.48057 7.32143 6.51715 7.32143 7.95481Z" fill="#F9862B"/>
</svg>
