<svg width="46" height="34" viewBox="0 0 46 34" fill="none" xmlns="http://www.w3.org/2000/svg">
<path fill-rule="evenodd" clip-rule="evenodd" d="M0.640582 0.304976C-0.442186 1.0318 -0.062251 7.64667 1.10699 8.43154C1.71415 8.83911 2.91191 9.17257 3.76837 9.17257C4.62484 9.17257 5.60641 9.65917 5.94955 10.2532C6.54475 11.2826 6.6303 11.2826 7.75999 10.2532C8.73696 9.36276 10.4057 9.17257 17.2409 9.17257C27.2084 9.17257 27.8082 8.85701 27.4191 3.82114L27.1413 0.218523L14.2097 0.0480877C7.09763 -0.0457754 0.991079 0.0697009 0.640582 0.304976ZM39.0158 0.760706C38.2716 2.06306 39.3166 2.99736 41.519 2.99736C42.9081 2.99736 43.2954 2.65341 43.0746 1.61412C42.7315 -7.87671e-05 39.8033 -0.615747 39.0158 0.760706ZM26.4973 4.38679L26.7733 7.93753H17.5739C10.1877 7.93753 8.21536 8.12772 7.56956 8.90271C6.83913 9.77835 6.6533 9.77835 5.57053 8.90271C4.91462 8.37164 3.60003 7.93753 2.65065 7.93753C1.17691 7.93753 0.923004 7.45401 0.923004 4.64429C0.923004 2.83249 1.21002 1.15777 1.56144 0.921879C1.91286 0.685986 7.60544 0.57051 14.2106 0.664373L26.2213 0.836044L26.4973 4.38679ZM42.3202 1.79876C42.3202 2.11863 41.6993 2.37984 40.9403 2.37984C39.5181 2.37984 39.1124 1.65117 40.1483 0.955842C40.8833 0.462444 42.3202 1.02006 42.3202 1.79876ZM8.5125 2.21867C11.4213 2.34094 16.182 2.34094 19.0918 2.21867C22.0006 2.0964 19.6208 1.99575 13.8021 1.99575C7.98353 1.99575 5.60273 2.0964 8.5125 2.21867ZM3.68282 3.61488C3.68282 3.9891 7.66891 4.23241 13.8021 4.23241C19.9354 4.23241 23.9215 3.9891 23.9215 3.61488C23.9215 3.24067 19.9354 2.99736 13.8021 2.99736C7.66891 2.99736 3.68282 3.24067 3.68282 3.61488ZM8.5125 5.30627C11.4213 5.42854 16.182 5.42854 19.0918 5.30627C22.0006 5.184 19.6208 5.08335 13.8021 5.08335C7.98353 5.08335 5.60273 5.184 8.5125 5.30627ZM32.7023 6.42213C30.0639 8.0635 29.9912 8.71313 31.7925 14.5703C32.3371 16.342 32.6857 16.5322 34.8338 16.2296C36.1686 16.0419 38.2955 15.7455 39.5604 15.5719C43.4628 15.0359 46 12.9481 46 10.2718C46 5.35259 38.0986 3.06467 32.7023 6.42213ZM42.8216 6.98346C47.0037 9.79009 44.6781 14.7302 39.1759 14.7302C37.9524 14.7302 36.3995 14.8698 35.7261 15.0402C34.211 15.4231 31.281 12.1138 31.281 10.021C31.281 8.02892 35.1622 5.46745 38.1805 5.46745C39.4914 5.46745 41.5797 6.14981 42.8216 6.98346ZM14.7221 6.70249C14.7221 7.04212 16.7919 7.32001 19.3218 7.32001C21.8516 7.32001 23.9215 7.04212 23.9215 6.70249C23.9215 6.36285 21.8516 6.08497 19.3218 6.08497C16.7919 6.08497 14.7221 6.36285 14.7221 6.70249ZM36.4943 8.96693C35.6203 9.55296 35.7344 11.5093 36.6654 11.8952C37.0968 12.0743 38.2192 11.8427 39.1603 11.3808C40.6119 10.6682 40.6855 10.3909 39.6432 9.54802C38.3185 8.47662 37.4602 8.31854 36.4943 8.96693ZM39.5604 10.0624C39.5604 10.2125 39.1465 10.5064 38.6405 10.7164C38.1345 10.9263 37.7206 10.8034 37.7206 10.444C37.7206 10.0846 38.1345 9.79009 38.6405 9.79009C39.1465 9.79009 39.5604 9.91236 39.5604 10.0624ZM3.24953 13.7144C1.36365 14.6401 1.65712 16.4859 3.83553 17.4072C4.94682 17.8765 5.76924 17.8314 6.82533 17.2436C10.1675 15.3811 6.74162 12.0002 3.24953 13.7144ZM7.06543 15.1014C7.85014 16.4735 5.39943 17.3819 3.80425 16.3111C3.11154 15.8461 2.82544 15.1619 3.16857 14.7895C4.09403 13.7842 6.41872 13.9701 7.06543 15.1014ZM19.285 17.225C17.3154 18.5471 17.1737 20.3126 18.8305 22.9124C19.3144 23.6732 19.1001 23.9931 18.1075 23.9931C17.331 23.9931 15.9152 24.6587 14.9622 25.472C13.6209 26.6169 12.8666 26.8151 11.6247 26.3489C10.3671 25.8759 10.2521 25.5585 11.0938 24.8773C12.4452 23.7843 11.7001 22.4202 9.27513 21.5489C6.67078 20.6134 3.18145 22.8278 4.55216 24.547C5.24948 25.4214 5.03789 25.9487 3.65338 26.7898C2.54026 27.466 1.84294 28.685 1.84294 29.9552V32.0208H7.36257C10.4287 32.0208 12.8822 32.295 12.8822 32.6383C12.8822 33.0144 17.0219 33.2559 23.4615 33.2559C29.5478 33.2559 34.0408 33.0064 34.0408 32.668C34.0408 32.3444 36.6286 31.9967 39.7904 31.8961C45 31.7293 45.5686 31.5781 45.8409 30.2868C46.0064 29.5032 45.4057 28.1138 44.5051 27.1992C43.6045 26.2847 42.9798 24.7927 43.1169 23.8831C43.4361 21.7539 40.519 20.5177 37.6286 21.5563C36.1631 22.0824 35.7914 22.6876 36.0913 24.0597C36.6645 26.6799 34.8025 27.4123 32.3601 25.527C31.2672 24.6834 29.7566 23.9931 29.0023 23.9931C27.8193 23.9931 27.8423 23.696 29.1697 21.8268C30.6435 19.7519 30.6297 19.5883 28.8339 17.9673C26.3602 15.7331 22.0108 15.3953 19.285 17.225ZM27.0759 17.5529C28.7861 18.7015 28.9802 21.5853 27.4172 22.6345C24.8405 24.3642 18.4018 22.7179 18.4018 20.3299C18.4018 17.2899 24.0089 15.4947 27.0759 17.5529ZM10.1224 23.6843C10.1224 24.9193 9.66242 25.2281 7.82254 25.2281C6.20529 25.2281 5.5227 24.8922 5.5227 24.0962C5.5227 22.6642 6.3028 22.1405 8.43614 22.1405C9.62194 22.1405 10.1224 22.5987 10.1224 23.6843ZM41.8603 23.6756C41.8603 25.0379 39.0002 25.7166 37.5007 24.71C35.9543 23.6719 37.4795 22.0318 39.7867 22.2516C41.1436 22.3807 41.8603 22.8735 41.8603 23.6756ZM31.281 25.8456C32.5753 26.7145 33.1209 27.9038 33.1209 29.8595C33.1209 32.4117 32.9332 32.6383 30.821 32.6383C29.086 32.6383 28.4908 32.2968 28.3961 31.2489L28.2709 29.8595L27.8717 31.2489C27.5396 32.4086 26.8754 32.6383 23.8571 32.6383C21.2564 32.6383 20.2417 32.3784 20.2417 31.7121C20.2417 31.2026 19.8277 30.7858 19.3218 30.7858C18.8158 30.7858 18.4018 31.2026 18.4018 31.7121C18.4018 32.3006 17.5196 32.6383 15.9824 32.6383C13.6559 32.6383 13.5814 32.5309 14.034 29.8342C14.7414 25.6196 16.5896 24.6106 23.6041 24.6106C28.2148 24.6106 29.8275 24.8699 31.281 25.8456ZM11.7783 27.2042C13.1131 28.1002 13.2511 30.7858 11.9623 30.7858C11.4563 30.7858 11.0092 30.4387 10.9697 30.0139C10.9117 29.3964 10.8041 29.3964 10.4333 30.0139C10.1776 30.4387 8.96879 30.7858 7.74619 30.7858C6.52267 30.7858 5.48958 30.4387 5.45002 30.0139C5.39207 29.3964 5.28443 29.3964 4.9137 30.0139C4.25594 31.1081 2.76288 30.9723 2.76288 29.8187C2.76288 27.7389 4.62852 26.4631 7.67075 26.4631C9.32296 26.4631 11.1711 26.7966 11.7783 27.2042ZM43.6477 27.8359C44.4352 28.5905 45.0801 29.5631 45.0801 29.9972C45.0801 31.0167 42.3432 31.0334 42.2476 30.0139C42.1896 29.3964 42.082 29.3964 41.7112 30.0139C41.4555 30.4387 40.4537 30.7858 39.4841 30.7858C38.5135 30.7858 37.6874 30.4387 37.6479 30.0139C37.5899 29.3964 37.4823 29.3964 37.1116 30.0139C36.5026 31.0266 34.0408 31.013 34.0408 29.9972C34.0408 26.8028 40.9486 25.2485 43.6477 27.8359Z" fill="#D79B15"/>
</svg>
