<svg width="33" height="33" viewBox="0 0 33 33" fill="none" xmlns="http://www.w3.org/2000/svg">
<path fill-rule="evenodd" clip-rule="evenodd" d="M13.9002 2.99605C11.6157 4.91903 13.2696 8.34021 16.4838 8.34021C18.2815 8.34021 20.2511 6.68288 20.2511 5.17011C20.2511 3.65733 18.2815 2 16.4838 2C15.7145 2 14.5519 2.44825 13.9002 2.99605ZM3.17477 7.43166C2.54865 8.80495 3.46485 9.41044 8.22518 10.7679C12.1936 11.8996 12.3473 12.0289 12.5606 14.4205C12.7602 16.6624 12.4182 17.2 8.98165 20.0455C5.03355 23.3145 4.37578 24.6041 6.33401 25.2362C7.06863 25.474 8.9613 24.4336 11.563 22.3635C13.8053 20.5787 16.0197 19.1186 16.4838 19.1186C16.9479 19.1186 19.1623 20.5787 21.4046 22.3635C24.0063 24.4336 25.899 25.474 26.6336 25.2362C28.588 24.6054 27.9356 23.3164 24.0183 20.0696C20.8327 17.4295 20.2511 16.5818 20.2511 14.5796C20.2511 12.2591 20.3415 12.1849 24.8441 10.8034C29.4741 9.38254 30.9125 8.18171 29.4538 6.95424C28.8992 6.4876 27.2401 6.69049 23.9332 7.63074C18.0442 9.30392 14.9015 9.32041 9.32598 7.70619C4.0533 6.17947 3.75192 6.16615 3.17477 7.43166ZM12.1514 25.8785C9.96717 26.6203 11.5426 27.0438 16.4838 27.0438C21.6065 27.0438 23.0072 26.6317 20.566 25.8436C19.1691 25.3922 13.5137 25.4163 12.1514 25.8785ZM8.76089 29.0093C6.79211 29.5184 5.18198 30.2425 5.18198 30.6178C5.18198 31.0128 5.73727 31.1155 6.50052 30.8606C7.2261 30.6184 9.76825 30.11 12.1514 29.7302C16.3007 29.0683 22.5823 29.5647 26.4671 30.8606C27.2266 31.1142 27.7856 31.0134 27.7856 30.6235C27.7856 29.6072 20.5042 27.9885 16.1583 28.0392C14.0584 28.0633 10.7297 28.5002 8.76089 29.0093Z" fill="white"/>
</svg>
