<svg width="46" height="36" viewBox="0 0 46 36" fill="none" xmlns="http://www.w3.org/2000/svg">
<path fill-rule="evenodd" clip-rule="evenodd" d="M23.9588 0.824299C23.6253 1.50556 22.0141 1.67234 15.7574 1.67234C7.18221 1.67234 5.70283 1.90923 5.66898 3.28758C5.65673 3.79867 5.17057 4.7106 4.58862 5.31384C3.03218 6.92965 3.29218 8.33684 5.43706 9.89724C6.98342 11.0217 7.10586 11.2835 6.08528 11.2835C5.39385 11.2835 3.71136 12.1598 2.34651 13.2312C-0.0835867 15.1387 -0.130402 15.2637 0.0777473 19.3088C0.26645 22.9741 0.47316 23.5021 1.9194 23.9996C3.45784 24.5294 3.53851 24.8403 3.35989 29.5781C3.19999 33.8353 3.36133 34.6918 4.42944 35.2317C5.3744 35.7106 6.04566 35.693 7.13035 35.161C8.28489 34.5951 8.86109 34.5951 10.0156 35.161C11.101 35.693 11.7709 35.7106 12.7165 35.2317C13.7681 34.6991 13.9489 33.8404 13.8156 30.0061L13.6565 25.4176H18.7298H23.8039L21.5128 28.5604C20.2531 30.2893 19.4191 31.8582 19.6597 32.047C20.2272 32.4931 20.2236 32.4971 23.2601 28.5271C25.7824 25.2299 25.8552 25.1863 25.8566 26.9723C25.8581 27.9832 26.1829 28.8098 26.579 28.8098C26.9752 28.8098 27.3 27.9832 27.3014 26.9723C27.3029 25.1863 27.3756 25.2299 29.8979 28.5271C32.9344 32.4971 32.9308 32.4931 33.4984 32.047C33.7389 31.8582 32.9121 30.2984 31.6596 28.5808L29.3836 25.4577L36.8043 25.2966L44.2249 25.1349L44.4237 15.82C44.5332 10.6967 44.938 6.25744 45.324 5.9544C46.2942 5.19286 46.2027 3.16829 45.1612 2.35078C44.5923 1.90414 41.5449 1.67234 36.2353 1.67234C29.7337 1.67234 28.0937 1.50839 27.7588 0.824299C27.2222 -0.274766 24.4954 -0.274766 23.9588 0.824299ZM44.585 3.93379C44.585 4.84912 44.1046 5.06452 42.0642 5.06452C40.6777 5.06452 39.5434 5.31893 39.5434 5.62988C39.5434 5.94083 40.3536 6.19525 41.344 6.19525H43.1446V15.241V24.2869H28.3796H13.6147V20.8342C13.6147 17.7541 13.7508 17.4296 14.8751 17.8248C15.568 18.069 17.6127 18.372 19.4184 18.4981C25.2134 18.9035 26.3658 15.3654 20.6759 14.6384C19.2974 14.462 17.1482 13.7468 15.8993 13.0491C14.6504 12.3509 12.4897 11.6346 11.0974 11.4571L8.56723 11.1348L10.3707 9.82261C11.3625 9.10121 12.1742 7.98971 12.1742 7.35311C12.1742 6.24161 12.5761 6.19525 22.2576 6.19525C28.4999 6.19525 32.341 5.97984 32.341 5.62988C32.341 5.27936 28.4567 5.06452 22.1286 5.06452C12.5408 5.06452 7.13251 4.41209 7.13251 3.25479C7.13251 3.0066 15.5593 2.80307 25.8588 2.80307C44.1046 2.80307 44.585 2.8319 44.585 3.93379ZM9.98466 5.88543C11.8983 7.69515 9.08796 10.475 6.59233 9.24142C5.89874 8.89881 5.22387 8.18815 5.09207 7.66236C4.55549 5.52077 8.19991 4.19725 9.98466 5.88543ZM33.7814 5.62988C33.7814 5.94083 34.7538 6.19525 35.9422 6.19525C37.1306 6.19525 38.1029 5.94083 38.1029 5.62988C38.1029 5.31893 37.1306 5.06452 35.9422 5.06452C34.7538 5.06452 33.7814 5.31893 33.7814 5.62988ZM15.2993 14.1103C17.1734 15.0432 19.6676 15.8064 20.8423 15.8064C22.2605 15.8064 22.9778 16.0914 22.9778 16.6545C22.9778 17.7948 17.2865 17.8084 15.3728 16.6725C12.0914 14.7243 11.9228 15.1862 12.3802 24.8398C12.6611 30.7699 12.5538 33.9964 12.0683 34.2322C10.653 34.9185 10.0869 33.5842 9.58853 28.3857C9.31268 25.5097 8.85533 23.1561 8.57299 23.1561C8.29066 23.1561 7.8333 25.5097 7.55745 28.3857C7.05904 33.5842 6.49293 34.9185 5.07766 34.2322C4.59222 33.9964 4.4849 30.7699 4.7658 24.8398C5.08054 18.1956 4.97395 15.8064 4.36246 15.8064C3.8194 15.8064 3.5313 17.0807 3.5313 19.4813C3.5313 22.3708 3.30011 23.1561 2.45094 23.1561C0.977328 23.1561 0.966525 16.9292 2.43582 14.6989C3.71713 12.7535 4.37038 12.5166 8.61188 12.4589C11.0838 12.425 12.7317 12.832 15.2993 14.1103ZM8.42894 15.9195C9.10093 16.447 9.48554 16.447 10.1575 15.9195C10.8295 15.392 10.6379 15.241 9.29323 15.241C7.94854 15.241 7.75696 15.392 8.42894 15.9195ZM15.0552 22.0254C15.0552 22.6473 15.3793 23.1561 15.7754 23.1561C16.1715 23.1561 16.4956 22.6473 16.4956 22.0254C16.4956 21.4035 16.1715 20.8947 15.7754 20.8947C15.3793 20.8947 15.0552 21.4035 15.0552 22.0254ZM18.6564 22.0254C18.6564 22.6473 18.9805 23.1561 19.3766 23.1561C19.7727 23.1561 20.0968 22.6473 20.0968 22.0254C20.0968 21.4035 19.7727 20.8947 19.3766 20.8947C18.9805 20.8947 18.6564 21.4035 18.6564 22.0254ZM22.2576 22.0254C22.2576 22.6473 22.5817 23.1561 22.9778 23.1561C23.3739 23.1561 23.6981 22.6473 23.6981 22.0254C23.6981 21.4035 23.3739 20.8947 22.9778 20.8947C22.5817 20.8947 22.2576 21.4035 22.2576 22.0254ZM25.8588 22.0254C25.8588 22.6473 26.1829 23.1561 26.579 23.1561C26.9752 23.1561 27.2993 22.6473 27.2993 22.0254C27.2993 21.4035 26.9752 20.8947 26.579 20.8947C26.1829 20.8947 25.8588 21.4035 25.8588 22.0254ZM29.46 22.0254C29.46 22.6473 29.7841 23.1561 30.1802 23.1561C30.5764 23.1561 30.9005 22.6473 30.9005 22.0254C30.9005 21.4035 30.5764 20.8947 30.1802 20.8947C29.7841 20.8947 29.46 21.4035 29.46 22.0254ZM33.0612 22.0254C33.0612 22.6473 33.3853 23.1561 33.7814 23.1561C34.1776 23.1561 34.5017 22.6473 34.5017 22.0254C34.5017 21.4035 34.1776 20.8947 33.7814 20.8947C33.3853 20.8947 33.0612 21.4035 33.0612 22.0254ZM36.6624 22.0254C36.6624 22.6473 36.9865 23.1561 37.3826 23.1561C37.7788 23.1561 38.1029 22.6473 38.1029 22.0254C38.1029 21.4035 37.7788 20.8947 37.3826 20.8947C36.9865 20.8947 36.6624 21.4035 36.6624 22.0254ZM40.2636 22.0254C40.2636 22.6473 40.5877 23.1561 40.9838 23.1561C41.38 23.1561 41.7041 22.6473 41.7041 22.0254C41.7041 21.4035 41.38 20.8947 40.9838 20.8947C40.5877 20.8947 40.2636 21.4035 40.2636 22.0254Z" fill="#D79B15"/>
</svg>
