<svg width="33" height="33" viewBox="0 0 33 33" fill="none" xmlns="http://www.w3.org/2000/svg">
<path fill-rule="evenodd" clip-rule="evenodd" d="M7.36244 11.9653C4.9631 17.4454 3 22.3153 3 22.7873C3 23.2584 3.42863 23.638 3.9519 23.6297C4.55351 23.6214 6.20438 20.5638 8.43945 15.3193C10.3841 10.7558 12.0975 7.02138 12.2471 7.01971C12.3967 7.01805 13.8653 9.99575 15.5107 13.6361C17.1562 17.2764 18.794 20.2683 19.1503 20.2841C20.1816 20.3315 20.5607 18.6883 19.8291 17.3397C19.2825 16.3307 19.3918 15.723 20.4215 14.0465C21.1155 12.9152 21.852 11.9895 22.0577 11.9895C22.2633 11.9895 23.8374 14.799 25.5558 18.2329C28.7422 24.5987 29.4542 25.407 29.9911 23.2651C30.2701 22.1529 23.9065 8.66382 22.4558 7.29193C22.13 6.98309 21.0427 8.10108 20.0396 9.77681C19.0366 11.4517 18.1184 12.8219 17.9987 12.8219C17.8796 12.8219 16.6465 10.387 15.2589 7.41097C13.8713 4.43494 12.5087 2 12.2302 2C11.9522 2 9.76178 6.48444 7.36244 11.9653ZM3.24858 28.6969C2.38697 30.8305 4.38108 31.1585 16.9081 30.9437C28.0514 30.7522 29.9253 30.5399 29.9253 29.4711C29.9253 28.4014 28.0367 28.1908 16.7727 27.9993C7.61429 27.8444 3.50696 28.0559 3.24858 28.6969Z" fill="white"/>
</svg>
