<svg width="33" height="33" viewBox="0 0 33 33" fill="none" xmlns="http://www.w3.org/2000/svg">
<path fill-rule="evenodd" clip-rule="evenodd" d="M5.3167 5.34024C4.32148 7.17712 3.33115 9.77889 3.11575 11.1223C2.62394 14.1911 3.76255 18.7812 5.33622 20.071C5.99522 20.6109 6.70792 22.0693 6.92027 23.3105C7.13261 24.5525 7.5811 25.5681 7.91793 25.5681C8.31455 25.5681 8.34262 24.4997 7.99786 22.5328C7.70497 20.8637 7.46578 16.9979 7.46639 13.9426C7.467 9.30682 7.34008 8.59049 6.69999 9.61534C6.27835 10.291 5.92322 12.6299 5.91163 14.8132C5.89088 18.6162 5.85305 18.7083 5.0177 16.9979C4.5381 16.0159 4.13598 14.2183 4.12378 13.0034C4.10059 10.6116 6.45286 4.77318 7.62381 4.3161C8.02044 4.16112 8.93755 5.46308 9.66245 7.20926C11.1049 10.6845 10.9335 14.686 9.27315 16.2994C8.77829 16.78 8.37373 17.6549 8.37373 18.2441C8.37373 19.1354 8.53421 19.1597 9.32929 18.387C11.133 16.6351 12.1819 13.3105 11.8488 10.4031C11.518 7.5135 8.82283 2 7.74158 2C7.40293 2 6.31191 3.50264 5.3167 5.34024ZM14.0582 15.5288C11.2721 17.01 9.77473 19.6096 9.42753 23.5719C9.30854 24.9324 8.58059 27.0814 7.81053 28.3477C5.59799 31.9843 6.88 31.8465 9.66123 28.1484C12.819 23.949 15.8668 22.1036 20.6019 21.5244C23.0097 21.2301 24.094 20.828 23.7059 20.3738C22.7601 19.2668 16.6253 20.4831 13.5713 22.3842L10.8145 24.0997V22.4928C10.8145 18.849 14.6477 15.5616 18.8799 15.5766C21.3439 15.5852 27.173 18.6683 27.6868 20.2345C28.2231 21.8715 23.9933 26.7151 20.7685 28.1563C18.2569 29.279 15.6862 29.239 12.1874 28.0213C11.432 27.7592 10.8145 27.852 10.8145 28.2284C10.8145 29.039 14.8875 30.5674 17.0488 30.5674C20.8258 30.5674 25.3516 27.5099 28.322 22.952L30 20.3774L27.9321 18.357C25.5786 16.0573 21.2524 14.134 18.4858 14.1568C17.4545 14.1654 15.4623 14.7832 14.0582 15.5288Z" fill="white"/>
</svg>
