<svg width="25" height="25" viewBox="0 0 25 25" fill="none" xmlns="http://www.w3.org/2000/svg">
<path fill-rule="evenodd" clip-rule="evenodd" d="M6.3772 1.64307C-7.56052 9.4661 3.62067 30.4018 18.1562 23.6947C22.6562 21.6186 27.2087 12.5416 23.7493 12.5416C23.0614 12.5416 22.4986 13.4219 22.4986 14.4986C22.4986 17.9098 16.6666 22.675 12.4931 22.675C10.0567 22.675 7.49281 21.5262 5.55799 19.5653C-2.61278 11.2914 7.40651 -1.79343 17.6584 3.7635C19.6545 4.84524 19.8597 5.48365 18.674 6.9302C17.4408 8.43502 17.8498 8.74156 21.0953 8.74156C24.6335 8.74156 25 8.37042 25 4.78698C25 1.46574 24.7073 1.07687 23.1777 2.36255C21.7344 3.57603 20.7664 3.47723 18.5214 1.88501C15.1058 -0.538149 10.4282 -0.631884 6.3772 1.64307ZM11.2424 8.48822C11.2424 10.4389 10.5758 12.7088 9.76282 13.5334C7.67541 15.6475 9.52644 17.0434 11.8377 15.1003C13.9414 13.332 14.4829 4.94151 12.4931 4.94151C11.8052 4.94151 11.2424 6.53753 11.2424 8.48822Z" fill="white"/>
</svg>
