<svg xmlns:xlink="http://www.w3.org/1999/xlink" width="19" height="19" viewBox="0 0 19 19" fill="none" xmlns="http://www.w3.org/2000/svg">
                                    <path fill-rule="evenodd" clip-rule="evenodd" d="M18.9313 8.98769L18.9313 8.99236C18.9311 9.15003 18.9309 9.30783 18.9309 9.46581C18.9309 9.64421 18.9312 9.8224 18.9314 10.0004C18.9331 11.1267 18.9348 12.2464 18.8693 13.3731C18.7959 14.8887 18.4526 16.2313 17.342 17.3419C16.2337 18.4502 14.8887 18.7959 13.3731 18.8693C12.2277 18.9338 11.0896 18.9325 9.94439 18.9313H9.94398L9.90759 18.9312C9.76046 18.9311 9.61321 18.9309 9.46581 18.9309C9.31874 18.9309 9.17179 18.9311 9.02493 18.9312L8.98851 18.9313H8.9882H8.9879C7.84429 18.9325 6.70597 18.9338 5.55852 18.8693C4.04297 18.7959 2.70028 18.4526 1.58967 17.3419C0.481419 16.2337 0.135683 14.8887 0.0622737 13.3731C-0.002179 12.2275 -0.000915843 11.0874 0.000351913 9.94313C0.000528091 9.78412 0.000704358 9.62502 0.000704358 9.46581C0.000704358 9.30658 0.000528042 9.14749 0.00035184 8.98851C-0.000915891 7.8447 -0.00217775 6.70618 0.0622737 5.55852C0.135683 4.04297 0.479051 2.70029 1.58967 1.58966C2.69792 0.481415 4.04297 0.135682 5.55852 0.0622718C6.70392 -0.00216608 7.84202 -0.000914854 8.98723 0.000351625H8.98764L9.16021 0.00053473L9.46581 0.000702577C9.61288 0.000702577 9.75983 0.000549989 9.90669 0.000397401L9.94311 0.000351625H9.94342H9.94373C11.0873 -0.000914854 12.2257 -0.00218133 13.3731 0.0622718C14.8887 0.135682 16.2313 0.47905 17.342 1.58966C18.4502 2.69792 18.7959 4.04297 18.8693 5.55852C18.9338 6.70409 18.9325 7.84233 18.9313 8.98769ZM6.30676 9.46619C6.30676 7.72803 7.72523 6.30957 9.46338 6.30957C11.2015 6.30957 12.62 7.72803 12.62 9.46619C12.62 11.2043 11.2015 12.6228 9.46338 12.6228C7.72523 12.6228 6.30676 11.2043 6.30676 9.46619ZM9.46332 14.3221C6.77558 14.3221 4.60645 12.153 4.60645 9.46527C4.60645 6.77754 6.77558 4.6084 9.46332 4.6084C12.1511 4.6084 14.3202 6.77754 14.3202 9.46527C14.3202 12.153 12.1511 14.3221 9.46332 14.3221ZM13.3849 4.41066C13.3849 5.03819 13.8917 5.54497 14.5192 5.54497C14.8201 5.54533 15.1089 5.42595 15.3217 5.21315C15.5345 5.00035 15.6539 4.71161 15.6535 4.41066C15.6535 3.78313 15.1467 3.27637 14.5192 3.27637C13.8917 3.27637 13.3849 3.78313 13.3849 4.41066Z" fill="#F9862B"></path>
                                </svg>