<svg width="31" height="31" viewBox="0 0 31 31" fill="none" xmlns="http://www.w3.org/2000/svg">
<path fill-rule="evenodd" clip-rule="evenodd" d="M6.47969 4.1986C4.04836 6.77292 3.60414 8.30673 4.29427 11.74C5.26072 16.5493 11.0462 25.96 13.036 25.96C14.9543 25.96 20.7966 16.623 21.7036 12.1057C22.2853 9.21307 21.738 7.20044 19.6544 4.56298C16.008 -0.0489565 10.6297 -0.197602 6.47969 4.1986ZM17.5694 5.66401C18.7117 6.80186 19.6464 8.60139 19.6464 9.66295C19.6464 12.4583 14.5312 22.0136 13.036 22.0136C11.5407 22.0136 6.42549 12.4583 6.42549 9.66295C6.42549 6.96761 10.0983 3.59745 13.036 3.59745C14.3858 3.59745 16.4258 4.52747 17.5694 5.66401ZM10.3918 10.1747C10.3918 11.9281 11.2736 12.8055 13.036 12.8055C14.7983 12.8055 15.6801 11.9281 15.6801 10.1747C15.6801 8.42117 14.7983 7.54377 13.036 7.54377C11.2736 7.54377 10.3918 8.42117 10.3918 10.1747Z" fill="#F9862B"/>
</svg>
