<svg width="31" height="31" viewBox="0 0 31 31" fill="none" xmlns="http://www.w3.org/2000/svg">
<path fill-rule="evenodd" clip-rule="evenodd" d="M5.87025 4.74095C2.45807 8.86342 4.83566 14.5982 12.8996 21.6978C20.5178 28.4063 24.0116 29.2184 27.4377 25.08C29.1567 23.0028 28.9657 21.7437 26.6378 19.8061C24.9566 18.4074 22.9968 17.8467 22.2846 18.563C20.3387 20.5145 11.8829 11.7986 12.9692 8.9592C13.4865 7.60433 12.6449 5.44532 11.099 4.1583C8.91834 2.34249 7.74646 2.47219 5.87025 4.74095ZM10.3966 9.14877C9.79178 12.2735 16.7554 20.0396 20.6829 20.6163C24.9606 21.2468 27.374 25.8123 23.4286 25.8123C19.9567 25.8123 5.77077 11.7288 5.77077 8.28077C5.77077 6.76627 6.89093 5.93818 8.25779 6.44102C9.62664 6.94386 10.5876 8.16304 10.3966 9.14877Z" fill="#F9862B"/>
</svg>
