<svg width="256" height="256" viewBox="0 0 256 256" fill="none" xmlns="http://www.w3.org/2000/svg">
<path fill-rule="evenodd" clip-rule="evenodd" d="M114.603 0.873733C64.6833 7.01475 24.293 38.4503 8.00337 83.8405C-3.96242 117.182 -1.83699 151.695 14.2178 184.768C15.5216 187.452 16.586 190.54 16.584 191.628C16.5814 192.716 15.667 196.988 14.5513 201.12C13.4357 205.253 12.143 210.104 11.6786 211.901C11.2142 213.698 9.88276 218.549 8.71907 222.681C2.84209 243.552 -0.400964 256.003 0.0397763 256C0.427233 255.997 9.05983 253.784 27.1131 249.061C49.9685 243.081 64.0603 239.669 65.9002 239.669C67.0731 239.669 71.3332 241.11 75.3663 242.873C83.0516 246.23 92.8288 249.52 100.102 251.196C117.044 255.102 140.067 254.945 157.78 250.804C194.983 242.105 226.046 217.419 242.841 183.206C271.808 124.192 251.56 53.5379 195.775 18.9766C171.706 4.06413 142.187 -2.51921 114.603 0.873733ZM148.984 22.71C176.741 28.1911 201.75 44.8376 217.376 68.2309C236.426 96.7537 240.618 134.071 228.268 165.185C216.505 194.817 192.455 217.822 163.006 227.609C134.214 237.178 106.917 235.229 79.5027 221.646C73.9119 218.876 70.2577 217.454 68.7256 217.454C67.4507 217.454 58.5142 219.513 48.8673 222.028C39.2196 224.544 30.8548 226.602 30.2785 226.602C29.3497 226.602 29.3254 226.249 30.0667 223.498C30.5259 221.791 31.7067 217.307 32.6901 213.534C33.6729 209.761 35.3681 203.934 36.4561 200.585C38.0902 195.557 38.3934 193.669 38.1941 189.758C37.9737 185.423 37.5534 184.218 33.2558 175.592C24.9173 158.86 21.9446 147.579 21.3861 130.547C20.9954 118.629 21.8716 110.884 24.8699 99.7559C32.6296 70.958 53.5911 45.2891 80.1941 32.0074C89.2924 27.4646 104.139 22.9883 115.11 21.4797C122.581 20.4519 140.925 21.1184 148.984 22.71ZM78.7521 69.663C73.7428 72.023 68.248 79.1898 65.4167 87.0564C63.2742 93.0099 63.0578 102.514 64.9175 108.995C69.6696 125.554 88.9931 150.47 109.366 166.308C129.014 181.581 155.312 190.593 170.122 187.128C182.561 184.218 190.606 176.08 192.395 164.595C193.503 157.484 193.696 157.68 178.189 150.177C170.824 146.614 164.04 143.509 163.114 143.279C160.576 142.646 159.175 143.73 153.702 150.557C146.39 159.68 146.576 159.533 142.867 159.097C137.287 158.441 123.699 150.725 115.59 143.609C110.222 138.898 104.219 132.162 100.629 126.823C94.8766 118.266 94.8273 117.438 99.7143 111.587C103.91 106.565 106.052 102.793 106.052 100.428C106.052 96.6936 94.4872 70.289 92.5243 69.5409C91.8566 69.2861 89.0773 68.9306 86.3473 68.7509C82.353 68.4876 80.8696 68.6654 78.7521 69.663Z" fill="#F9862B"/>
</svg>
