<svg width="46" height="36" viewBox="0 0 46 36" fill="none" xmlns="http://www.w3.org/2000/svg">
<path fill-rule="evenodd" clip-rule="evenodd" d="M0.963286 1.21761C-0.748861 2.95444 -0.00244375 19.2019 1.82171 19.9201C2.59825 20.2261 4.1805 20.888 5.33825 21.3922C8.20344 22.6383 37.7966 22.6383 40.6618 21.3922C41.8195 20.888 43.4017 20.2261 44.1783 19.9201C46.0024 19.2019 46.7489 2.95444 45.0367 1.21761C43.4375 -0.40587 2.56248 -0.40587 0.963286 1.21761ZM44.1783 4.86806V8.03891H23H1.82171V4.86806V1.6972H23H44.1783V4.86806ZM4.64548 4.4717C4.64548 6.2553 5.02199 6.45348 8.41051 6.45348C11.799 6.45348 12.1755 6.2553 12.1755 4.4717C12.1755 2.68809 11.799 2.48991 8.41051 2.48991C5.02199 2.48991 4.64548 2.68809 4.64548 4.4717ZM16.2154 3.69325C14.4167 5.33338 16.6719 6.25451 22.0973 6.09755C27.8927 5.92871 29.5973 5.23587 27.9322 3.72496C27.0804 2.95207 26.574 2.90926 26.0591 3.5688C25.548 4.22199 25.1254 4.17443 24.5295 3.39599C24.0674 2.79273 23.465 2.64846 23.1572 3.0678C22.5689 3.87003 19.7903 3.9057 18.2768 3.13043C17.7685 2.86962 16.8404 3.1225 16.2154 3.69325ZM10.293 4.86806C10.293 5.30405 9.4459 5.66077 8.41051 5.66077C7.37513 5.66077 6.528 5.30405 6.528 4.86806C6.528 4.43206 7.37513 4.07534 8.41051 4.07534C9.4459 4.07534 10.293 4.43206 10.293 4.86806ZM32.422 4.88074C32.7477 5.32387 33.4075 5.48162 33.8894 5.23033C35.1949 4.55097 34.9521 4.07534 33.2983 4.07534C32.4916 4.07534 32.0972 4.43761 32.422 4.88074ZM36.6482 4.91483C36.6482 5.37618 37.0718 5.53394 37.5895 5.26441C38.1072 4.99489 38.5307 4.61756 38.5307 4.42493C38.5307 4.2323 38.1072 4.07534 37.5895 4.07534C37.0718 4.07534 36.6482 4.45347 36.6482 4.91483ZM40.4133 4.91483C40.4133 5.37618 40.8368 5.53394 41.3545 5.26441C41.8722 4.99489 42.2958 4.61756 42.2958 4.42493C42.2958 4.2323 41.8722 4.07534 41.3545 4.07534C40.8368 4.07534 40.4133 4.45347 40.4133 4.91483ZM44.1783 13.8994C44.1783 17.4936 43.798 19.0901 42.8709 19.3898C41.9089 19.7005 41.5974 19.1456 41.6943 17.2946L41.8251 14.777H23H4.17486L4.30569 17.2946C4.40264 19.1456 4.09108 19.7005 3.12912 19.3898C2.20198 19.0901 1.82171 17.4936 1.82171 13.8994V8.83162H23H44.1783V13.8994ZM40.4133 16.7588C40.4133 17.259 33.9816 17.5515 23 17.5515C12.0184 17.5515 5.58674 17.259 5.58674 16.7588C5.58674 16.2586 12.0184 15.966 23 15.966C33.9816 15.966 40.4133 16.2586 40.4133 16.7588ZM39.472 19.9296C39.472 20.4282 33.3538 20.7223 23 20.7223C12.6462 20.7223 6.528 20.4282 6.528 19.9296C6.528 19.431 12.6462 19.1369 23 19.1369C33.3538 19.1369 39.472 19.431 39.472 19.9296ZM14.5729 25.7426C14.988 27.1354 14.684 28.5401 13.691 29.8163C11.7849 32.2666 11.7727 33.7228 13.6467 35.0324C14.9344 35.9321 15.0407 35.8013 14.4986 33.9836C14.0976 32.6376 14.4082 31.271 15.3805 30.1017C17.28 27.8179 17.2903 25.9582 15.4106 24.6447C14.1211 23.7434 14.0176 23.8789 14.5729 25.7426ZM23.0442 25.7426C23.4593 27.1354 23.1553 28.5401 22.1623 29.8163C20.2562 32.2666 20.244 33.7228 22.118 35.0324C23.4057 35.9321 23.512 35.8013 22.9699 33.9836C22.5689 32.6376 22.8795 31.271 23.8518 30.1017C25.7513 27.8179 25.7617 25.9582 23.882 24.6447C22.5924 23.7434 22.4889 23.8789 23.0442 25.7426ZM31.5014 25.6934C31.9024 27.0395 31.5918 28.4061 30.6195 29.5754C28.72 31.8592 28.7097 33.7189 30.5894 35.0324C31.877 35.9321 31.9834 35.8013 31.4412 33.9836C31.0402 32.6376 31.3508 31.271 32.3232 30.1017C34.2226 27.8179 34.233 25.9582 32.3533 24.6447C31.0656 23.7449 30.9593 23.8757 31.5014 25.6934Z" fill="#D79B15"/>
</svg>
