<svg width="17" height="26" viewBox="0 0 17 26" fill="none" xmlns="http://www.w3.org/2000/svg">
<path fill-rule="evenodd" clip-rule="evenodd" d="M5.01026 0.567632C4.11131 0.982518 2.73421 2.09797 1.94944 3.04605C-0.770989 6.33461 -0.645019 10.8973 2.33271 16.9167C4.16813 20.6272 7.87382 26 8.59748 26C8.81297 26 10.3037 23.9757 11.9108 21.5022C18.242 11.7543 18.6521 5.41379 13.2187 1.28782C11.4444 -0.0593318 7.18018 -0.433329 5.01026 0.567632ZM10.6655 6.9185C11.2552 7.5182 11.7376 8.49954 11.7376 9.09924C11.7376 10.5036 9.90222 12.3704 8.52136 12.3704C7.14051 12.3704 5.30509 10.5036 5.30509 9.09924C5.30509 7.69485 7.14051 5.82813 8.52136 5.82813C9.11101 5.82813 10.0759 6.3188 10.6655 6.9185Z" fill="#D79B15"/>
</svg>
