<svg width="16" height="15" viewBox="0 0 16 15" fill="none" xmlns="http://www.w3.org/2000/svg">
<path d="M8 0C3.58892 0 0 3.36461 0 7.5C0 8.72824 0.345083 9.8763 0.904688 10.8999L0.0375 13.8105C-0.164481 14.4868 0.54877 15.1555 1.27031 14.9663L4.37734 14.1533C5.46829 14.6768 6.6911 15 8 15C12.4111 15 16 11.6354 16 7.5C16 3.36461 12.4111 0 8 0ZM8 1.125C11.7625 1.125 14.8 3.97264 14.8 7.5C14.8 11.0274 11.7625 13.875 8 13.875C6.79937 13.875 5.67624 13.5823 4.69688 13.0708C4.55883 12.9987 4.396 12.9805 4.24375 13.0203L1.28906 13.793L2.11406 11.0244C2.15668 10.8815 2.13731 10.7285 2.06016 10.5989C1.51346 9.68005 1.2 8.62669 1.2 7.5C1.2 3.97264 4.23748 1.125 8 1.125ZM5.29609 4.12573C5.16849 4.12573 4.96232 4.1706 4.78672 4.34985C4.61152 4.52835 4.11797 4.96128 4.11797 5.84253C4.11797 6.72378 4.80206 7.57482 4.89766 7.69482C4.99286 7.8137 6.21894 9.68044 8.16094 10.3982C9.77454 10.9944 10.1027 10.8757 10.4531 10.8457C10.8035 10.8165 11.5838 10.4131 11.743 9.99463C11.9022 9.57613 11.9023 9.21816 11.8555 9.14429C11.8079 9.06966 11.6803 9.02444 11.4891 8.93481C11.2983 8.84519 10.3596 8.41216 10.1844 8.35254C10.0092 8.29291 9.88111 8.26264 9.75391 8.44189C9.62671 8.62114 9.26082 9.0243 9.14922 9.14355C9.03762 9.26355 8.92636 9.27859 8.73516 9.18896C8.54356 9.09859 7.92884 8.90993 7.19844 8.2998C6.63044 7.82543 6.24832 7.23906 6.13672 7.05981C6.02552 6.88131 6.12471 6.78321 6.22031 6.69434C6.30631 6.61409 6.41143 6.48548 6.50703 6.38086C6.60183 6.27623 6.63328 6.20201 6.69688 6.08276C6.76048 5.96389 6.72885 5.85891 6.68125 5.76929C6.63365 5.67966 6.26219 4.79358 6.09219 4.43921C5.94939 4.14146 5.7989 4.135 5.6625 4.13013C5.5513 4.126 5.42329 4.12573 5.29609 4.12573Z" fill="white"/>
</svg>
