<svg width="27" height="25" viewBox="0 0 27 25" fill="none" xmlns="http://www.w3.org/2000/svg">
<path fill-rule="evenodd" clip-rule="evenodd" d="M12.747 0.629207C9.66048 0.839888 6.76471 1.9909 4.54051 3.89113C2.33989 5.77121 0.984897 8.15981 0.552372 10.9213C0.425552 11.731 0.425552 13.1518 0.552372 13.9615C0.705026 14.936 0.985561 15.9228 1.34041 16.733C1.51553 17.1328 1.97668 17.9943 2.20431 18.3469L2.35046 18.5733L2.20347 18.9582C1.30317 21.3162 -0.0161291 24.8566 0.000149202 24.8712C0.0115617 24.8814 0.71458 24.6919 1.56242 24.4501C3.30102 23.9543 6.0378 23.174 6.7851 22.9611L7.28137 22.8197L7.9352 23.0987C9.58563 23.8033 11.0903 24.1538 12.9171 24.2592C17.038 24.497 21.0697 22.9798 23.7799 20.1714C27.6995 16.1098 28.0791 10.2318 24.7083 5.79601C24.184 5.10596 23.8301 4.72798 23.1008 4.0791C22.3633 3.42292 21.933 3.10283 21.1737 2.64546C19.3985 1.57621 17.5013 0.937459 15.3713 0.692033C14.7244 0.617454 13.3878 0.58547 12.747 0.629207ZM15.4011 2.67993C18.9181 3.17228 21.9747 5.1454 23.5795 7.95926C24.1614 8.97965 24.4992 9.92279 24.6975 11.0808C24.8069 11.7197 24.8056 13.1662 24.6949 13.8218C24.3349 15.9559 23.2373 17.9103 21.5523 19.4177C18.9828 21.7164 15.3645 22.7298 11.757 22.161C10.4728 21.9585 8.97745 21.451 7.93383 20.8633C7.71611 20.7407 7.61397 20.7047 7.53943 20.7244C7.48414 20.739 6.53624 21.0077 5.43294 21.3216C4.32969 21.6356 3.41735 21.8838 3.40554 21.8732C3.39369 21.8627 3.69187 21.0406 4.06809 20.0465L4.75217 18.2389L4.44333 17.8248C3.58536 16.6743 2.97311 15.1869 2.72247 13.6443C2.65201 13.2107 2.65201 11.6721 2.72247 11.2385C3.03472 9.31642 3.84488 7.62991 5.13812 6.20976C5.57463 5.73043 6.49944 4.9344 7.04255 4.5705C8.52998 3.57389 10.2762 2.91653 12.0614 2.68124C12.8786 2.57353 12.9796 2.5684 13.9635 2.58493C14.5405 2.59463 15.0164 2.62606 15.4011 2.67993ZM8.9103 6.70022C8.68484 6.76577 8.48517 6.90258 8.14668 7.22338C7.06542 8.24819 6.81655 9.60898 7.43769 11.1005C7.66506 11.6465 7.94347 12.1004 8.5804 12.9631C9.36158 14.0214 9.80658 14.5143 10.7113 15.3237C11.5724 16.0941 12.1958 16.5397 13.0227 16.9759C13.8497 17.4121 15.6499 18.0692 16.5924 18.2789C17.1055 18.3931 17.2624 18.3951 17.9874 18.2969C18.8655 18.1779 19.9702 17.5538 20.2891 16.9965C20.5484 16.5432 20.6923 15.5844 20.5212 15.4488C20.3093 15.2807 17.6779 14.0569 17.4448 14.0179C17.1728 13.9723 17.0919 14.0175 16.7193 14.4224C16.5243 14.6343 16.1974 14.9654 15.9929 15.1582C15.5128 15.6109 15.4996 15.6117 14.6708 15.2436C13.0058 14.504 11.7965 13.4949 10.807 12.0191C10.3892 11.3961 10.3894 11.3951 10.9713 10.8224C11.5026 10.2995 11.7266 9.96704 11.6961 9.74681C11.6701 9.55983 10.6268 7.06886 10.5214 6.94218C10.3455 6.73083 10.264 6.7074 9.6285 6.68555C9.30005 6.67427 8.97688 6.6809 8.9103 6.70022Z" fill="white"/>
</svg>
