<svg width="25" height="18" viewBox="0 0 25 18" fill="none" xmlns="http://www.w3.org/2000/svg">
<path fill-rule="evenodd" clip-rule="evenodd" d="M0 9.16606C0 3.0643 0.077618 2.43783 0.929557 1.67229C1.80241 0.887958 2.47866 0.837006 11.9806 0.837006C20.3894 0.837006 22.2773 0.946846 23.1353 1.48728C24.1285 2.11207 24.1685 2.39147 24.1685 8.7029C24.1685 13.9694 24.0253 15.4524 23.4448 16.1967C22.7342 17.1088 22.5394 17.1251 12.3938 17.1251C3.79863 17.1251 1.89258 17.0161 1.0332 16.4748C0.0390415 15.8492 0 15.5735 0 9.16606ZM22.077 15.2457V8.98105V5.72864C21.5866 6.35147 21.0026 7.04544 20.3454 7.74003C19.3163 8.82757 18.0843 9.94116 16.7275 10.7825C15.375 11.6211 13.8341 12.2288 12.2091 12.2029C10.7313 12.1793 9.2993 11.5557 8.0354 10.7395C6.76114 9.91653 5.57501 8.84385 4.57047 7.80083C3.56242 6.75416 2.71493 5.7139 2.12037 4.93722C2.06027 4.85871 2.00268 4.7828 1.94772 4.70977C1.91884 5.90409 1.92118 7.60801 1.96136 9.41874L2.0915 15.2457H12.0842H22.077ZM2.08014 3.01593C2.16901 2.95672 2.24737 2.90451 2.31647 2.85846C2.19213 2.90458 2.11684 2.95692 2.08014 3.01593ZM2.97388 2.72104C2.99823 2.75585 3.02558 2.79473 3.05584 2.83743C3.20593 3.04917 3.42728 3.3542 3.70848 3.72152C4.27209 4.45779 5.07003 5.43641 6.01101 6.41345C6.95553 7.39415 8.02206 8.35003 9.12044 9.0594C10.2292 9.77546 11.2898 10.188 12.241 10.2031C13.348 10.2208 14.5094 9.80458 15.6735 9.08273C16.8333 8.3636 17.9323 7.38023 18.8927 6.36538C19.8496 5.35412 20.6461 4.33587 21.2042 3.56833C21.4557 3.22254 21.6574 2.92947 21.8023 2.71327L12.1893 2.60364C6.87972 2.54313 4.20542 2.56512 2.97388 2.72104Z" fill="#D79B15"/>
</svg>
