<svg width="15" height="15" viewBox="0 0 15 15" fill="none" xmlns="http://www.w3.org/2000/svg">
<path d="M4.53947 0C2.03936 0 0 2.03936 0 4.53947V10.4605C0 12.9603 2.03929 15 4.53947 15H10.4605C12.9604 15 15 12.9604 15 10.4605V4.53947C15 2.03929 12.9603 0 10.4605 0H4.53947ZM4.53947 1.18421H10.4605C12.3202 1.18421 13.8158 2.67939 13.8158 4.53947V10.4605C13.8158 12.3202 12.3202 13.8158 10.4605 13.8158H4.53947C2.67939 13.8158 1.18421 12.3202 1.18421 10.4605V4.53947C1.18421 2.67932 2.67932 1.18421 4.53947 1.18421ZM11.4474 2.76316C11.0112 2.76316 10.6579 3.11645 10.6579 3.55263C10.6579 3.98882 11.0112 4.34211 11.4474 4.34211C11.8836 4.34211 12.2368 3.98882 12.2368 3.55263C12.2368 3.11645 11.8836 2.76316 11.4474 2.76316ZM7.5 3.55263C5.32704 3.55263 3.55263 5.32704 3.55263 7.5C3.55263 9.67296 5.32704 11.4474 7.5 11.4474C9.67296 11.4474 11.4474 9.67296 11.4474 7.5C11.4474 5.32704 9.67296 3.55263 7.5 3.55263ZM7.5 4.73684C9.03283 4.73684 10.2632 5.96717 10.2632 7.5C10.2632 9.03283 9.03283 10.2632 7.5 10.2632C5.96717 10.2632 4.73684 9.03283 4.73684 7.5C4.73684 5.96717 5.96717 4.73684 7.5 4.73684Z" fill="white"/>
</svg>
