<svg width="22" height="21" viewBox="0 0 22 21" fill="none" xmlns="http://www.w3.org/2000/svg">
<path fill-rule="evenodd" clip-rule="evenodd" d="M2.17491 1.4831C-1.88565 3.46159 -0.140623 8.97137 6.40897 14.852C13.0178 20.7859 19.1621 22.3176 21.3211 18.5692C23.6632 14.5026 19.5595 10.3989 14.8991 12.147L13.1063 12.8196L10.8895 10.8291L8.67263 8.83867L9.42168 7.22901C11.3755 3.02971 6.66553 -0.705151 2.17491 1.4831ZM7.36226 2.8694C8.95353 4.29815 9.12519 6.05906 7.81297 7.49152L6.9221 8.46448L10.1845 11.4279L13.4469 14.3917L14.5797 13.5914C17.0875 11.8202 20.8208 13.3928 20.8208 16.2206C20.8208 19.4383 17.5997 20.3119 13.1637 18.298C11.8469 17.7001 9.19724 15.7994 7.27551 14.074C1.06786 8.50034 -0.542226 3.49538 3.40956 2.05715C5.07197 1.45178 5.99451 1.64176 7.36226 2.8694Z" fill="#D79B15"/>
</svg>
