<svg width="26" height="12" viewBox="0 0 26 12" fill="none" xmlns="http://www.w3.org/2000/svg">
<path fill-rule="evenodd" clip-rule="evenodd" d="M5.75 1H7V4.8H8V1H9.5V4.8H10.5V1H12.25V8.4H13.25V1H15V4.8H16V1H17.5V4.8H18.5V1H20.5V4.8H21.5V1H22C22.3506 1 22.6872 1.06015 23 1.17071V4.8H24V1.76389C24.6137 2.31321 25 3.1115 25 4V8C25 9.65685 23.6569 11 22 11H4C2.34315 11 1 9.65685 1 8V4C1 2.99624 1.49297 2.10761 2.25 1.56302V4.8H3.25V1.09451C3.48971 1.03281 3.74103 1 4 1H4.75V4.8H5.75V1ZM0 4C0 1.79086 1.79086 0 4 0H22C24.2091 0 26 1.79086 26 4V8C26 10.2091 24.2091 12 22 12H4C1.79086 12 0 10.2091 0 8V4Z" fill="#18DC20"/>
</svg>
