<svg width="46" height="36" viewBox="0 0 46 36" fill="none" xmlns="http://www.w3.org/2000/svg">
<path fill-rule="evenodd" clip-rule="evenodd" d="M5 1.93349C5 3.48028 4.5 3.86698 2.5 3.86698H0V18.9482V34.0294H6C9.333 34.0294 12 33.686 12 33.256C12 32.8306 9.75 32.4826 7 32.4826H2V18.9482V5.41377H4.5C6.5 5.41377 7 5.02707 7 3.48028V1.54679H17C25.222 1.54679 27 1.75329 27 2.70688C27 3.65197 25.333 3.86698 18 3.86698C12.667 3.86698 9 4.18175 9 4.64037C9 5.11137 13.5 5.41377 20.5 5.41377H32V9.66744C32 12.007 32.45 13.9211 33 13.9211C33.564 13.9211 34 11.7301 34 8.89404C34 4.04718 33.91 3.86698 31.5 3.86698C29.5 3.86698 29 3.48028 29 1.93349V0H17H5V1.93349ZM6 8.50735C6 8.93271 6.9 9.28074 8 9.28074C9.1 9.28074 10 8.93271 10 8.50735C10 8.08198 9.1 7.73395 8 7.73395C6.9 7.73395 6 8.08198 6 8.50735ZM15 8.50735C15 8.93271 15.9 9.28074 17 9.28074C18.1 9.28074 19 8.93271 19 8.50735C19 8.08198 18.1 7.73395 17 7.73395C15.9 7.73395 15 8.08198 15 8.50735ZM24 8.50735C24 8.93271 24.9 9.28074 26 9.28074C27.1 9.28074 28 8.93271 28 8.50735C28 8.08198 27.1 7.73395 26 7.73395C24.9 7.73395 24 8.08198 24 8.50735ZM6 12.3743C6 12.7997 6.9 13.1477 8 13.1477C9.1 13.1477 10 12.7997 10 12.3743C10 11.949 9.1 11.6009 8 11.6009C6.9 11.6009 6 11.949 6 12.3743ZM15 12.3743C15 12.7997 15.9 13.1477 17 13.1477C18.1 13.1477 19 12.7997 19 12.3743C19 11.949 18.1 11.6009 17 11.6009C15.9 11.6009 15 11.949 15 12.3743ZM24 12.3743C24 12.7997 24.9 13.1477 26 13.1477C27.1 13.1477 28 12.7997 28 12.3743C28 11.949 27.1 11.6009 26 11.6009C24.9 11.6009 24 11.949 24 12.3743ZM21.455 15.8198C18.517 18.0913 18.283 21.2111 20.75 25.2173C22.433 27.949 22.428 28.092 20.642 28.9172C16.241 30.9505 14 32.6937 14 34.0858C14 35.495 14.868 35.5762 30 35.5762C40.658 35.5762 46 35.3008 46 34.7517C46 32.9845 43.938 31.1036 40.952 30.1469C38.253 29.2823 37.92 28.8724 38.509 27.1408C38.884 26.0379 39.411 23.5414 39.681 21.594C40.122 18.4029 39.904 17.9172 37.483 16.6906C36.005 15.9412 33.963 15.4973 32.944 15.703C31.926 15.9095 30.285 15.6032 29.296 15.024C26.619 13.4532 24.196 13.6991 21.455 15.8198ZM6 16.2413C6 16.6667 6.9 17.0147 8 17.0147C9.1 17.0147 10 16.6667 10 16.2413C10 15.8159 9.1 15.4679 8 15.4679C6.9 15.4679 6 15.8159 6 16.2413ZM15 16.2413C15 16.6667 15.675 17.0147 16.5 17.0147C17.325 17.0147 18 16.6667 18 16.2413C18 15.8159 17.325 15.4679 16.5 15.4679C15.675 15.4679 15 15.8159 15 16.2413ZM28.456 16.5073C30.006 17.3836 30.18 18.1446 29.566 21.3411C28.141 28.7649 28.288 29.6551 31.122 30.7162C32.564 31.2568 34.307 32.2227 34.994 32.8639C36.095 33.8894 35.014 34.0294 26 34.0294C16.986 34.0294 15.905 33.8894 17.006 32.8639C17.693 32.2227 19.436 31.2629 20.878 30.7301C23.794 29.6527 24.821 26.8322 22.937 25.0766C20.897 23.1763 20.716 18.5391 22.617 16.9149C24.626 15.198 25.975 15.1044 28.456 16.5073ZM36.461 18.0572C38.343 19.1214 38.34 19.6419 36.406 27.5274C35.877 29.6852 36.166 30.0472 39.367 31.222C43.885 32.8801 44.814 34.0294 41.636 34.0294C40.271 34.0294 37.864 33.0727 36.288 31.9025C34.712 30.7324 32.54 29.3898 31.461 28.9172C29.691 28.1431 29.622 27.7981 30.75 25.3821C31.438 23.9103 32 21.6566 32 20.3759C32 16.9056 33.264 16.249 36.461 18.0572ZM6 20.1083C6 20.5336 6.9 20.8817 8 20.8817C9.1 20.8817 10 20.5336 10 20.1083C10 19.6829 9.1 19.3349 8 19.3349C6.9 19.3349 6 19.6829 6 20.1083ZM15 20.1083C15 20.5336 15.702 20.8817 16.559 20.8817C17.416 20.8817 17.84 20.5336 17.5 20.1083C17.16 19.6829 16.459 19.3349 15.941 19.3349C15.423 19.3349 15 19.6829 15 20.1083ZM6 23.9752C6 24.4006 6.9 24.7486 8 24.7486C9.1 24.7486 10 24.4006 10 23.9752C10 23.5499 9.1 23.2019 8 23.2019C6.9 23.2019 6 23.5499 6 23.9752ZM15 23.9752C15 24.4006 15.675 24.7486 16.5 24.7486C17.325 24.7486 18 24.4006 18 23.9752C18 23.5499 17.325 23.2019 16.5 23.2019C15.675 23.2019 15 23.5499 15 23.9752ZM6 27.8422C6 28.2676 6.9 28.6156 8 28.6156C9.1 28.6156 10 28.2676 10 27.8422C10 27.4169 9.1 27.0688 8 27.0688C6.9 27.0688 6 27.4169 6 27.8422ZM15 27.8422C15 28.2676 15.9 28.6156 17 28.6156C18.1 28.6156 19 28.2676 19 27.8422C19 27.4169 18.1 27.0688 17 27.0688C15.9 27.0688 15 27.4169 15 27.8422Z" fill="#D79B15"/>
</svg>
