<svg width="46" height="36" viewBox="0 0 46 36" fill="none" xmlns="http://www.w3.org/2000/svg">
<path fill-rule="evenodd" clip-rule="evenodd" d="M11.3445 1.34453C6.19696 2.81238 0.00153484 6.13641 1.70162e-06 7.43129C-0.000764869 7.93311 0.257569 8.24077 0.573396 8.11497C0.88999 7.98986 3.7355 6.72711 6.8976 5.30916C17.579 0.518647 26.9312 0.515912 37.5604 5.29959C43.5604 8.00011 45.0061 9.82484 42.5715 11.6263C41.5673 12.3695 40.4397 12.0871 35.5106 9.85698C29.8426 7.29319 29.3827 7.20363 21.9124 7.21115C14.9727 7.2173 13.7691 7.41078 10.1693 9.09604C4.89225 11.5675 3.30929 13.6582 4.60402 16.4462C5.98768 19.425 8.47061 19.719 13.4119 17.4895C18.009 15.4153 23.861 14.9955 28.6283 16.3991C32.1438 17.4335 33.631 19.5474 31.9192 21.074C30.9181 21.9662 30.2473 22.0086 27.7307 21.3359C23.5728 20.2249 19.4824 20.3357 16.3916 21.6442C13.4311 22.8967 12.7159 23.631 13.4395 24.6743C13.7691 25.1501 14.5993 25.0093 15.881 24.26C19.3835 22.2137 22.0374 21.8979 26.045 23.0526C30.5532 24.3509 33.1657 23.8874 34.3447 21.58C35.7398 18.8494 34.3094 16.5857 30.1531 14.9463C25.3689 13.0586 17.0577 13.4285 12.4591 15.7339C9.22721 17.3542 7.19963 17.2468 6.41083 15.4146C5.42579 13.1249 10.673 10.181 17.8458 8.99828C23.7599 8.02336 29.6862 9.05707 36.12 12.1863C41.1173 14.6167 41.2277 14.6359 43.2522 13.4531C47.4729 10.9871 46.8129 7.9126 41.3986 4.8135C33.1411 0.0879309 20.761 -1.34095 11.3445 1.34453ZM18.8339 28.4461C17.2846 29.8278 17.2846 33.1204 18.8339 34.5021C19.497 35.0928 21.0247 35.5762 22.229 35.5762C23.4333 35.5762 24.9611 35.0928 25.6242 34.5021C27.1734 33.1204 27.1734 29.8278 25.6242 28.4461C24.0749 27.0644 20.3831 27.0644 18.8339 28.4461ZM24.091 29.8135C24.7533 30.4049 25.2953 31.1521 25.2953 31.4741C25.2953 32.2337 23.0807 34.2088 22.229 34.2088C21.3774 34.2088 19.1627 32.2337 19.1627 31.4741C19.1627 30.7146 21.3774 28.7394 22.229 28.7394C22.5901 28.7394 23.4279 29.2228 24.091 29.8135Z" fill="#D79B15"/>
</svg>
